<svg width="41" height="41" viewBox="0 0 41 41" fill="none" xmlns="http://www.w3.org/2000/svg">
<g clip-path="url(#clip0_1_2853)">
<path d="M36.0738 30.482L36.0672 30.4819C35.9807 30.4819 35.8976 30.5163 35.8364 30.5775C35.7752 30.6388 35.7408 30.7218 35.7408 30.8084C35.7426 33.2259 33.7843 35.1872 31.3667 35.189H30.7139C30.6273 35.189 30.5443 35.2234 30.4831 35.2846C30.4218 35.3458 30.3875 35.4288 30.3875 35.5154C30.3875 35.602 30.4218 35.685 30.4831 35.7462C30.5443 35.8074 30.6273 35.8418 30.7139 35.8418H31.3667C34.1415 35.8382 36.3901 33.5897 36.3937 30.8149C36.3954 30.7283 36.3627 30.6446 36.3027 30.5822C36.2427 30.5198 36.1604 30.4838 36.0738 30.482ZM29.2384 35.189H28.4485C28.3619 35.189 28.2789 35.2234 28.2177 35.2846C28.1565 35.3458 28.1221 35.4288 28.1221 35.5154C28.1221 35.602 28.1565 35.685 28.2177 35.7462C28.2789 35.8074 28.3619 35.8418 28.4485 35.8418H29.2384C29.325 35.8418 29.408 35.8074 29.4693 35.7462C29.5305 35.685 29.5649 35.602 29.5649 35.5154C29.5649 35.4288 29.5305 35.3458 29.4693 35.2846C29.408 35.2234 29.325 35.189 29.2384 35.189Z" fill="black"/>
<path d="M38.9593 26.1308H29.3494L29.3821 26.0753L29.9664 25.4714C30.0099 25.4251 30.039 25.3671 30.05 25.3044C30.061 25.2418 30.0535 25.1773 30.0284 25.1189C30.0029 25.0605 29.9609 25.0109 29.9075 24.9761C29.8542 24.9412 29.7918 24.9228 29.7281 24.923H22.4912C22.113 24.9245 21.7442 25.0407 21.4335 25.2564C21.1228 25.472 20.885 25.777 20.7514 26.1308H2.3672V5.89253C2.369 3.27306 4.49394 1.15105 7.11341 1.15285H9.76724C12.2649 1.16166 14.3276 3.10601 14.4841 5.59874H13.5048C13.4296 5.59932 13.357 5.62584 13.2991 5.67382L9.30698 8.97723C9.25536 9.02021 9.21826 9.07807 9.20073 9.14292C9.18321 9.20776 9.18611 9.27643 9.20905 9.33956C9.23132 9.40326 9.27278 9.45849 9.32773 9.49766C9.38268 9.53683 9.44841 9.558 9.51589 9.55827H20.0822C20.1497 9.558 20.2154 9.53683 20.2704 9.49766C20.3253 9.45849 20.3668 9.40326 20.3891 9.33956C20.412 9.27643 20.4149 9.20776 20.3974 9.14292C20.3799 9.07807 20.3428 9.02021 20.2911 8.97723L16.2925 5.67382C16.2337 5.62516 16.1598 5.5986 16.0835 5.59874H15.1369C14.9794 2.74164 12.6189 0.504326 9.75744 0.500001H7.11667C4.1361 0.498206 1.71795 2.91195 1.71436 5.89253V30.2274C1.71917 34.1198 4.57203 37.4225 8.42237 37.9931L7.60957 40.0528C7.59033 40.1025 7.58353 40.1561 7.58979 40.209C7.59605 40.262 7.61517 40.3125 7.64548 40.3564C7.67511 40.4002 7.71495 40.4362 7.76158 40.4612C7.80821 40.4863 7.86023 40.4996 7.91315 40.5H9.72807C9.79344 40.5001 9.85733 40.4805 9.91146 40.4438C9.96558 40.4072 10.0075 40.3551 10.0316 40.2944L10.9065 38.0747H30.1067L30.9815 40.2944C31.0057 40.3551 31.0476 40.4072 31.1017 40.4438C31.1558 40.4805 31.2197 40.5001 31.2851 40.5H33.0772C33.1301 40.4996 33.1821 40.4863 33.2287 40.4612C33.2754 40.4362 33.3152 40.4002 33.3448 40.3564C33.3752 40.3125 33.3943 40.262 33.4005 40.209C33.4068 40.1561 33.4 40.1025 33.3807 40.0528L32.5777 37.9931C36.4281 37.4225 39.2809 34.1198 39.2858 30.2274V26.4572C39.2858 26.3707 39.2514 26.2876 39.1902 26.2264C39.1289 26.1652 39.0459 26.1308 38.9593 26.1308ZM15.9791 6.25159L19.1878 8.90542H10.4233L13.6452 6.25159H15.9791ZM21.2867 26.7837C21.2867 26.1184 21.826 25.5792 22.4912 25.5792H28.9577L28.8924 25.6444L28.8663 25.6738C28.6284 25.9949 28.5002 26.3841 28.5007 26.7837V33.3937H27.1624V32.2839C27.1624 32.1973 27.128 32.1143 27.0668 32.0531C27.0055 31.9919 26.9225 31.9575 26.8359 31.9575C26.7494 31.9575 26.6663 31.9919 26.6051 32.0531C26.5439 32.1143 26.5095 32.1973 26.5095 32.2839V33.3937H25.0863V32.2839C25.0863 32.1973 25.0519 32.1143 24.9907 32.0531C24.9295 31.9919 24.8465 31.9575 24.7599 31.9575C24.6733 31.9575 24.5903 31.9919 24.5291 32.0531C24.4679 32.1143 24.4335 32.1973 24.4335 32.2839V33.3937H23.0103V32.2839C23.0103 32.1973 22.9759 32.1143 22.9146 32.0531C22.8534 31.9919 22.7704 31.9575 22.6838 31.9575C22.5973 31.9575 22.5142 31.9919 22.453 32.0531C22.3918 32.1143 22.3574 32.1973 22.3574 32.2839V33.3937H21.2867V26.7837ZM2.3672 26.7837H20.6469L20.6339 27.7695C20.5913 27.7524 20.5459 27.7435 20.5001 27.7433H2.3672V26.7837ZM9.49304 39.8472H8.40278L9.10786 38.0583H10.1916L9.49304 39.8472ZM32.5973 39.8472H31.5071L30.8085 38.0747H31.8923L32.5973 39.8472ZM38.6199 30.2274C38.6163 34.1929 35.4073 37.4093 31.4418 37.4218H9.57138C5.60974 37.411 2.40083 34.2021 2.39005 30.2405V28.3962H20.5001C20.5461 28.3949 20.5915 28.3849 20.6339 28.3668V33.7202C20.6339 33.8067 20.6683 33.8898 20.7295 33.951C20.7907 34.0122 20.8737 34.0466 20.9603 34.0466H28.8271C28.9137 34.0466 28.9967 34.0122 29.0579 33.951C29.1192 33.8898 29.1536 33.8067 29.1536 33.7202V28.3962H38.6199V30.2274ZM38.6329 27.7433H29.1666V26.7641C29.1899 26.7729 29.2139 26.7794 29.2384 26.7837H38.6329V27.7433Z" fill="black"/>
<path d="M19.9974 10.5898H9.60084C9.51427 10.5898 9.43124 10.6242 9.37002 10.6855C9.30881 10.7467 9.27441 10.8297 9.27441 10.9163C9.27441 11.0028 9.30881 11.0859 9.37002 11.1471C9.43124 11.2083 9.51427 11.2427 9.60084 11.2427H19.9974C20.084 11.2427 20.167 11.2083 20.2283 11.1471C20.2895 11.0859 20.3239 11.0028 20.3239 10.9163C20.3239 10.8297 20.2895 10.7467 20.2283 10.6855C20.167 10.6242 20.084 10.5898 19.9974 10.5898ZM10.1982 12.9107C10.1116 12.9107 10.0286 12.9451 9.96738 13.0063C9.90616 13.0675 9.87177 13.1506 9.87177 13.2371V14.2491C9.87177 14.3356 9.90616 14.4187 9.96738 14.4799C10.0286 14.5411 10.1116 14.5755 10.1982 14.5755C10.2848 14.5755 10.3678 14.5411 10.429 14.4799C10.4902 14.4187 10.5246 14.3356 10.5246 14.2491V13.2371C10.5246 13.1506 10.4902 13.0675 10.429 13.0063C10.3678 12.9451 10.2848 12.9107 10.1982 12.9107ZM10.1982 19.9452C10.1116 19.9452 10.0286 19.9795 9.96738 20.0408C9.90616 20.102 9.87177 20.185 9.87177 20.2716V21.6067C9.87177 21.6932 9.90616 21.7763 9.96738 21.8375C10.0286 21.8987 10.1116 21.9331 10.1982 21.9331C10.2848 21.9331 10.3678 21.8987 10.429 21.8375C10.4902 21.7763 10.5246 21.6932 10.5246 21.6067V20.2716C10.5246 20.185 10.4902 20.102 10.429 20.0408C10.3678 19.9795 10.2848 19.9452 10.1982 19.9452ZM10.1982 16.6058C10.1116 16.6058 10.0286 16.6402 9.96738 16.7014C9.90616 16.7627 9.87177 16.8457 9.87177 16.9323V17.3174C9.87177 17.404 9.90616 17.487 9.96738 17.5483C10.0286 17.6095 10.1116 17.6439 10.1982 17.6439C10.2848 17.6439 10.3678 17.6095 10.429 17.5483C10.4902 17.487 10.5246 17.404 10.5246 17.3174V16.9323C10.5246 16.8457 10.4902 16.7627 10.429 16.7014C10.3678 16.6402 10.2848 16.6058 10.1982 16.6058ZM10.1982 23.0331C10.1116 23.0331 10.0286 23.0675 9.96738 23.1287C9.90616 23.1899 9.87177 23.273 9.87177 23.3596V23.7643C9.87177 23.8509 9.90616 23.9339 9.96738 23.9951C10.0286 24.0563 10.1116 24.0907 10.1982 24.0907C10.2848 24.0907 10.3678 24.0563 10.429 23.9951C10.4902 23.9339 10.5246 23.8509 10.5246 23.7643V23.3596C10.5246 23.273 10.4902 23.1899 10.429 23.1287C10.3678 23.0675 10.2848 23.0331 10.1982 23.0331ZM12.4995 15.9791C12.4129 15.9791 12.3299 16.0135 12.2687 16.0747C12.2075 16.1359 12.1731 16.219 12.1731 16.3055V18.0715C12.1731 18.1581 12.2075 18.2411 12.2687 18.3023C12.3299 18.3635 12.4129 18.3979 12.4995 18.3979C12.5861 18.3979 12.6691 18.3635 12.7303 18.3023C12.7915 18.2411 12.8259 18.1581 12.8259 18.0715V16.3055C12.8259 16.219 12.7915 16.1359 12.7303 16.0747C12.6691 16.0135 12.5861 15.9791 12.4995 15.9791ZM12.4995 12.9107C12.4129 12.9107 12.3299 12.9451 12.2687 13.0063C12.2075 13.0675 12.1731 13.1506 12.1731 13.2371V13.6223C12.1731 13.7089 12.2075 13.7919 12.2687 13.8531C12.3299 13.9144 12.4129 13.9487 12.4995 13.9487C12.5861 13.9487 12.6691 13.9144 12.7303 13.8531C12.7915 13.7919 12.8259 13.7089 12.8259 13.6223V13.2371C12.8259 13.1506 12.7915 13.0675 12.7303 13.0063C12.6691 12.9451 12.5861 12.9107 12.4995 12.9107ZM12.4995 19.4066C12.4129 19.4066 12.3299 19.4409 12.2687 19.5022C12.2075 19.5634 12.1731 19.6464 12.1731 19.733V20.1214C12.1731 20.208 12.2075 20.291 12.2687 20.3522C12.3299 20.4135 12.4129 20.4478 12.4995 20.4478C12.5861 20.4478 12.6691 20.4135 12.7303 20.3522C12.7915 20.291 12.8259 20.208 12.8259 20.1214V19.733C12.8259 19.6464 12.7915 19.5634 12.7303 19.5022C12.6691 19.4409 12.5861 19.4066 12.4995 19.4066ZM12.4995 23.2029C12.4129 23.2029 12.3299 23.2373 12.2687 23.2985C12.2075 23.3597 12.1731 23.4427 12.1731 23.5293V23.9177C12.1731 24.0043 12.2075 24.0873 12.2687 24.1486C12.3299 24.2098 12.4129 24.2442 12.4995 24.2442C12.5861 24.2442 12.6691 24.2098 12.7303 24.1486C12.7915 24.0873 12.8259 24.0043 12.8259 23.9177V23.5293C12.8259 23.4427 12.7915 23.3597 12.7303 23.2985C12.6691 23.2373 12.5861 23.2029 12.4995 23.2029ZM17.0988 12.9107C17.0122 12.9107 16.9292 12.9451 16.868 13.0063C16.8068 13.0675 16.7724 13.1506 16.7724 13.2371V13.7529C16.7724 13.8395 16.8068 13.9225 16.868 13.9837C16.9292 14.0449 17.0122 14.0793 17.0988 14.0793C17.1854 14.0793 17.2684 14.0449 17.3296 13.9837C17.3908 13.9225 17.4252 13.8395 17.4252 13.7529V13.2371C17.4252 13.1506 17.3908 13.0675 17.3296 13.0063C17.2684 12.9451 17.1854 12.9107 17.0988 12.9107ZM17.0988 23.9438C17.0122 23.9438 16.9292 23.9782 16.868 24.0395C16.8068 24.1007 16.7724 24.1837 16.7724 24.2703V24.786C16.7724 24.8726 16.8068 24.9556 16.868 25.0168C16.9292 25.0781 17.0122 25.1124 17.0988 25.1124C17.1854 25.1124 17.2684 25.0781 17.3296 25.0168C17.3908 24.9556 17.4252 24.8726 17.4252 24.786V24.2703C17.4252 24.1837 17.3908 24.1007 17.3296 24.0395C17.2684 23.9782 17.1854 23.9438 17.0988 23.9438ZM17.0988 19.1356C17.0122 19.1356 16.9292 19.17 16.868 19.2312C16.8068 19.2924 16.7724 19.3755 16.7724 19.462V20.3108C16.7724 20.3973 16.8068 20.4804 16.868 20.5416C16.9292 20.6028 17.0122 20.6372 17.0988 20.6372C17.1854 20.6372 17.2684 20.6028 17.3296 20.5416C17.3908 20.4804 17.4252 20.3973 17.4252 20.3108V19.462C17.4252 19.3755 17.3908 19.2924 17.3296 19.2312C17.2684 19.17 17.1854 19.1356 17.0988 19.1356ZM17.0988 15.7963C17.0122 15.7963 16.9292 15.8307 16.868 15.8919C16.8068 15.9531 16.7724 16.0362 16.7724 16.1227V17.3631C16.7724 17.4497 16.8068 17.5327 16.868 17.594C16.9292 17.6552 17.0122 17.6896 17.0988 17.6896C17.1854 17.6896 17.2684 17.6552 17.3296 17.594C17.3908 17.5327 17.4252 17.4497 17.4252 17.3631V16.1227C17.4252 16.0362 17.3908 15.9531 17.3296 15.8919C17.2684 15.8307 17.1854 15.7963 17.0988 15.7963ZM19.4001 12.9107C19.3135 12.9107 19.2305 12.9451 19.1693 13.0063C19.1081 13.0675 19.0737 13.1506 19.0737 13.2371V14.1087C19.0737 14.1953 19.1081 14.2783 19.1693 14.3395C19.2305 14.4007 19.3135 14.4351 19.4001 14.4351C19.4867 14.4351 19.5697 14.4007 19.6309 14.3395C19.6921 14.2783 19.7265 14.1953 19.7265 14.1087V13.2371C19.7265 13.1506 19.6921 13.0675 19.6309 13.0063C19.5697 12.9451 19.4867 12.9107 19.4001 12.9107ZM19.4001 16.978C19.3135 16.978 19.2305 17.0124 19.1693 17.0736C19.1081 17.1348 19.0737 17.2178 19.0737 17.3044V17.6896C19.0737 17.7761 19.1081 17.8592 19.1693 17.9204C19.2305 17.9816 19.3135 18.016 19.4001 18.016C19.4867 18.016 19.5697 17.9816 19.6309 17.9204C19.6921 17.8592 19.7265 17.7761 19.7265 17.6896V17.3044C19.7265 17.2178 19.6921 17.1348 19.6309 17.0736C19.5697 17.0124 19.4867 16.978 19.4001 16.978ZM19.4001 23.1115C19.3135 23.1115 19.2305 23.1459 19.1693 23.2071C19.1081 23.2683 19.0737 23.3513 19.0737 23.4379V23.8231C19.0737 23.9096 19.1081 23.9927 19.1693 24.0539C19.2305 24.1151 19.3135 24.1495 19.4001 24.1495C19.4867 24.1495 19.5697 24.1151 19.6309 24.0539C19.6921 23.9927 19.7265 23.9096 19.7265 23.8231V23.4379C19.7265 23.3513 19.6921 23.2683 19.6309 23.2071C19.5697 23.1459 19.4867 23.1115 19.4001 23.1115ZM19.4001 19.6253C19.3135 19.6253 19.2305 19.6597 19.1693 19.7209C19.1081 19.7821 19.0737 19.8651 19.0737 19.9517V21.1138C19.0737 21.2003 19.1081 21.2834 19.1693 21.3446C19.2305 21.4058 19.3135 21.4402 19.4001 21.4402C19.4867 21.4402 19.5697 21.4058 19.6309 21.3446C19.6921 21.2834 19.7265 21.2003 19.7265 21.1138V19.9517C19.7265 19.8651 19.6921 19.7821 19.6309 19.7209C19.5697 19.6597 19.4867 19.6253 19.4001 19.6253ZM14.8008 20.7286C14.7142 20.7286 14.6312 20.763 14.57 20.8242C14.5087 20.8854 14.4743 20.9684 14.4743 21.055V21.9233C14.4743 22.0099 14.5087 22.0929 14.57 22.1541C14.6312 22.2153 14.7142 22.2497 14.8008 22.2497C14.8873 22.2497 14.9704 22.2153 15.0316 22.1541C15.0928 22.0929 15.1272 22.0099 15.1272 21.9233V21.055C15.1272 20.9684 15.0928 20.8854 15.0316 20.8242C14.9704 20.763 14.8873 20.7286 14.8008 20.7286ZM14.8008 16.694C14.7142 16.694 14.6312 16.7284 14.57 16.7896C14.5087 16.8508 14.4743 16.9338 14.4743 17.0204V17.4056C14.4743 17.4922 14.5087 17.5752 14.57 17.6364C14.6312 17.6976 14.7142 17.732 14.8008 17.732C14.8873 17.732 14.9704 17.6976 15.0316 17.6364C15.0928 17.5752 15.1272 17.4922 15.1272 17.4056V17.0204C15.1272 16.9338 15.0928 16.8508 15.0316 16.7896C14.9704 16.7284 14.8873 16.694 14.8008 16.694ZM14.8008 12.9107C14.7142 12.9107 14.6312 12.9451 14.57 13.0063C14.5087 13.0675 14.4743 13.1506 14.4743 13.2371V14.3992C14.4743 14.4858 14.5087 14.5688 14.57 14.63C14.6312 14.6912 14.7142 14.7256 14.8008 14.7256C14.8873 14.7256 14.9704 14.6912 15.0316 14.63C15.0928 14.5688 15.1272 14.4858 15.1272 14.3992V13.2371C15.1272 13.1506 15.0928 13.0675 15.0316 13.0063C14.9704 12.9451 14.8873 12.9107 14.8008 12.9107Z" fill="black"/>
</g>
<defs>
<clipPath id="clip0_1_2853">
<rect width="40" height="40" fill="white" transform="translate(0.5 0.5)"/>
</clipPath>
</defs>
</svg>
