<svg width="41" height="41" viewBox="0 0 41 41" fill="none" xmlns="http://www.w3.org/2000/svg">
<g clip-path="url(#clip0_1_2887)">
<path d="M40.1762 26.0446H34.7529V20.9256C34.7529 20.8398 34.7188 20.7574 34.658 20.6967C34.5973 20.636 34.515 20.6019 34.4291 20.6019H21.3515L27.1796 18.1541C28.0523 17.789 28.4638 16.7857 28.0988 15.9129C28.0122 15.706 27.8858 15.5181 27.7268 15.3598L25.496 13.1257L26.4252 12.1965L26.9465 12.7178C26.9767 12.7478 27.0126 12.7715 27.0521 12.7876C27.0915 12.8038 27.1338 12.8119 27.1764 12.8117C27.219 12.8119 27.2612 12.8038 27.3007 12.7876C27.3401 12.7715 27.376 12.7478 27.4063 12.7178L33.4383 6.68573C34.1632 5.95803 34.1632 4.78108 33.4383 4.05338L33.3412 3.95625C32.6135 3.23138 31.4365 3.23138 30.7088 3.95625L24.6768 9.97535C24.6165 10.036 24.5826 10.1181 24.5826 10.2036C24.5826 10.2892 24.6165 10.3712 24.6768 10.4319L25.1851 10.9402L24.2559 11.8727L22.0218 9.63862C21.3508 8.9692 20.2643 8.97049 19.5949 9.64137C19.4382 9.79847 19.3135 9.98446 19.2275 10.189L14.8597 20.6019H5.20131C5.11544 20.6019 5.03308 20.636 4.97236 20.6967C4.91164 20.7574 4.87753 20.8398 4.87753 20.9256C4.87753 21.0115 4.91164 21.0939 4.97236 21.1546C5.03308 21.2153 5.11544 21.2494 5.20131 21.2494H11.7061V26.0446H1.14756V21.2494H3.02226C3.10813 21.2494 3.19049 21.2153 3.25121 21.1546C3.31193 21.0939 3.34604 21.0115 3.34604 20.9256C3.34604 20.8398 3.31193 20.7574 3.25121 20.6967C3.19049 20.636 3.10813 20.6019 3.02226 20.6019H0.823782C0.737909 20.6019 0.655554 20.636 0.594833 20.6967C0.534113 20.7574 0.5 20.8398 0.5 20.9256L0.5 26.3684C0.5 26.4543 0.534113 26.5366 0.594833 26.5974C0.655554 26.6581 0.737909 26.6922 0.823782 26.6922H6.26008V31.4971H0.823782C0.737909 31.4971 0.655554 31.5312 0.594833 31.592C0.534113 31.6527 0.5 31.735 0.5 31.8209L0.5 37.2637C0.502526 37.3479 0.537751 37.4277 0.5982 37.4864C0.65865 37.545 0.739566 37.5778 0.823782 37.5777H29.1547C29.2406 37.5777 29.3229 37.5436 29.3836 37.4829C29.4444 37.4222 29.4785 37.3398 29.4785 37.254C29.4785 37.1681 29.4444 37.0857 29.3836 37.025C29.3229 36.9643 29.2406 36.9302 29.1547 36.9302H23.5597V32.1447H34.1053V36.9399H31.3888C31.3029 36.9399 31.2206 36.974 31.1598 37.0347C31.0991 37.0955 31.065 37.1778 31.065 37.2637C31.065 37.3495 31.0991 37.4319 31.1598 37.4926C31.2206 37.5533 31.3029 37.5875 31.3888 37.5875H34.4291C34.515 37.5875 34.5973 37.5533 34.658 37.4926C34.7188 37.4319 34.7529 37.3495 34.7529 37.2637V32.1447H40.1762C40.2621 32.1447 40.3444 32.1106 40.4052 32.0499C40.4659 31.9891 40.5 31.9068 40.5 31.8209V26.3684C40.5 26.2825 40.4659 26.2002 40.4052 26.1395C40.3444 26.0788 40.2621 26.0446 40.1762 26.0446ZM23.5597 21.2494H34.1053V26.0446H23.5597V21.2494ZM31.1654 4.39983C31.6412 3.92775 32.4088 3.92775 32.8847 4.39983L32.9785 4.49696C33.4506 4.97284 33.4506 5.74037 32.9785 6.21624L27.1764 12.0184L25.8813 10.7233L25.3632 10.2052L31.1654 4.39983ZM25.687 11.4L25.9816 11.7464L24.8225 12.9023L22.7729 14.9616C22.7291 15.0028 22.6712 15.0257 22.6111 15.0257C22.5509 15.0257 22.493 15.0028 22.4492 14.9616C22.4087 14.9174 22.3862 14.8596 22.3862 14.7997C22.3862 14.7398 22.4087 14.682 22.4492 14.6378L25.687 11.4ZM14.8209 22.3859L19.8298 10.4513C20.0584 9.90736 20.6849 9.65173 21.2288 9.88048C21.3571 9.9344 21.4735 10.0128 21.5717 10.1113L23.8026 12.3422L21.9667 14.178C21.6198 14.525 21.6198 15.0874 21.9667 15.4343C22.3137 15.7812 22.8761 15.7812 23.223 15.4343L25.0394 13.5855L27.2703 15.8164C27.6866 16.2346 27.685 16.9112 27.2667 17.3275C27.1692 17.4245 27.0539 17.5018 26.9271 17.5551L19.6161 20.6278L15.0022 22.5672C14.9769 22.5784 14.9487 22.5817 14.9215 22.5764C14.8943 22.5712 14.8694 22.5579 14.85 22.5381C14.8294 22.5192 14.8154 22.4943 14.8102 22.4668C14.8049 22.4394 14.8087 22.411 14.8209 22.3859ZM12.3537 21.2494H14.5877L14.2154 22.1366C14.1554 22.2805 14.1397 22.4389 14.1703 22.5918C14.2008 22.7446 14.2763 22.8849 14.387 22.9946C14.4956 23.1071 14.6361 23.1835 14.7895 23.2137C14.943 23.2438 15.102 23.2261 15.245 23.163L19.8071 21.2494H22.9122V26.0446H12.3537V21.2494ZM6.90764 26.6922H17.4532V31.4971H6.90764V26.6922ZM11.7061 36.9399H1.14756V32.1447H11.7061V36.9399ZM22.9122 36.9399H12.3537V32.1447H22.9122V36.9399ZM28.6593 31.4971H18.1008V26.6922L23.236 26.7019H28.6593V31.4971ZM39.8654 31.4971H29.3069V26.6922H39.8654V31.4971Z" fill="black"/>
<path d="M31.5801 6.41039C31.5215 6.36014 31.4468 6.33252 31.3695 6.33252C31.2923 6.33252 31.2176 6.36014 31.1589 6.41039L29.7958 7.77351C29.7355 7.83417 29.7016 7.91624 29.7016 8.00177C29.7016 8.08731 29.7355 8.16938 29.7958 8.23004C29.826 8.26005 29.8619 8.28379 29.9014 8.2999C29.9408 8.31602 29.9831 8.32418 30.0257 8.32394C30.1106 8.32359 30.192 8.28986 30.2523 8.23004L31.6154 6.86692C31.6713 6.8017 31.699 6.71696 31.6923 6.63134C31.6857 6.54573 31.6454 6.46625 31.5801 6.41039ZM28.9313 9.41832C28.9302 9.41832 28.9293 9.418 28.9282 9.418C28.9271 9.418 28.9259 9.41832 28.9248 9.41832H28.9313Z" fill="black"/>
<path d="M29.3133 8.64747C29.2575 8.60502 29.1895 8.5818 29.1194 8.58131C29.0493 8.58081 28.981 8.60306 28.9246 8.64472L28.7045 8.86489C28.6591 8.90975 28.6281 8.96702 28.6152 9.02949C28.6023 9.09196 28.6082 9.15684 28.6321 9.21597C28.656 9.27511 28.6968 9.32586 28.7495 9.36185C28.8021 9.39784 28.8643 9.41746 28.928 9.41823C29.0129 9.41796 29.0942 9.38435 29.1545 9.32466L29.3747 9.10125C29.4005 9.06742 29.4193 9.02885 29.4302 8.98774C29.441 8.94662 29.4437 8.90377 29.438 8.86164C29.4323 8.8195 29.4183 8.7789 29.3969 8.74215C29.3755 8.7054 29.3471 8.67323 29.3133 8.64747ZM21.1992 35.6221H17.5437C17.4578 35.6221 17.3755 35.6562 17.3148 35.717C17.254 35.7777 17.2199 35.86 17.2199 35.9459C17.2199 36.0318 17.254 36.1141 17.3148 36.1749C17.3755 36.2356 17.4578 36.2697 17.5437 36.2697H21.1992C21.2851 36.2697 21.3674 36.2356 21.4282 36.1749C21.4889 36.1141 21.523 36.0318 21.523 35.9459C21.523 35.86 21.4889 35.7777 21.4282 35.717C21.3674 35.6562 21.2851 35.6221 21.1992 35.6221ZM7.82378 27.8449C7.73791 27.8449 7.65555 27.879 7.59483 27.9397C7.53411 28.0005 7.5 28.0828 7.5 28.1687V30.4352C7.5 30.521 7.53411 30.6034 7.59483 30.6641C7.65555 30.7248 7.73791 30.7589 7.82378 30.7589C7.90965 30.7589 7.99201 30.7248 8.05273 30.6641C8.11345 30.6034 8.14756 30.521 8.14756 30.4352V28.1687C8.14756 28.0828 8.11345 28.0005 8.05273 27.9397C7.99201 27.879 7.90965 27.8449 7.82378 27.8449ZM30.7054 22.182H28.5426C28.4567 22.182 28.3743 22.2161 28.3136 22.2768C28.2529 22.3375 28.2188 22.4199 28.2188 22.5057C28.2188 22.5916 28.2529 22.674 28.3136 22.7347C28.3743 22.7954 28.4567 22.8295 28.5426 22.8295H30.7054C30.7913 22.8295 30.8737 22.7954 30.9344 22.7347C30.9951 22.674 31.0292 22.5916 31.0292 22.5057C31.0292 22.4199 30.9951 22.3375 30.9344 22.2768C30.8737 22.2161 30.7913 22.182 30.7054 22.182ZM32.6449 22.182H32.0847C31.9989 22.182 31.9165 22.2161 31.8558 22.2768C31.7951 22.3375 31.761 22.4199 31.761 22.5057C31.761 22.5916 31.7951 22.674 31.8558 22.7347C31.9165 22.7954 31.9989 22.8295 32.0847 22.8295H32.6449C32.7308 22.8295 32.8131 22.7954 32.8738 22.7347C32.9346 22.674 32.9687 22.5916 32.9687 22.5057C32.9687 22.4199 32.9346 22.3375 32.8738 22.2768C32.8131 22.2161 32.7308 22.182 32.6449 22.182Z" fill="black"/>
</g>
<defs>
<clipPath id="clip0_1_2887">
<rect width="40" height="40" fill="white" transform="translate(0.5 0.5)"/>
</clipPath>
</defs>
</svg>
