<svg width="41" height="41" viewBox="0 0 41 41" fill="none" xmlns="http://www.w3.org/2000/svg">
<g clip-path="url(#clip0_1_2865)">
<path d="M24.6519 31.6245H16.7027C16.614 31.6245 16.5289 31.6598 16.4662 31.7225C16.4034 31.7852 16.3682 31.8703 16.3682 31.9591C16.3682 32.0478 16.4034 32.1329 16.4662 32.1956C16.5289 32.2584 16.614 32.2936 16.7027 32.2936H24.6519C24.7406 32.2936 24.8257 32.2584 24.8884 32.1956C24.9512 32.1329 24.9864 32.0478 24.9864 31.9591C24.9864 31.8703 24.9512 31.7852 24.8884 31.7225C24.8257 31.6598 24.7406 31.6245 24.6519 31.6245ZM23.869 33.4211H17.4889C17.4002 33.4211 17.3151 33.4563 17.2524 33.5191C17.1896 33.5818 17.1544 33.6669 17.1544 33.7557C17.1544 33.8444 17.1896 33.9295 17.2524 33.9922C17.3151 34.055 17.4002 34.0902 17.4889 34.0902H23.869C23.9577 34.0902 24.0428 34.055 24.1056 33.9922C24.1683 33.9295 24.2036 33.8444 24.2036 33.7557C24.2036 33.6669 24.1683 33.5818 24.1056 33.5191C24.0428 33.4563 23.9577 33.4211 23.869 33.4211ZM19.4963 37.7102H16.7897C16.701 37.7102 16.6159 37.7454 16.5531 37.8082C16.4904 37.8709 16.4551 37.956 16.4551 38.0447C16.4551 38.1335 16.4904 38.2185 16.5531 38.2813C16.6159 38.344 16.701 38.3793 16.7897 38.3793H19.4963C19.585 38.3793 19.6701 38.344 19.7329 38.2813C19.7956 38.2185 19.8309 38.1335 19.8309 38.0447C19.8309 37.956 19.7956 37.8709 19.7329 37.8082C19.6701 37.7454 19.585 37.7102 19.4963 37.7102Z" fill="black"/>
<path d="M40.3428 14.7159L20.8546 2.67172C20.8015 2.63848 20.74 2.62085 20.6773 2.62085C20.6146 2.62085 20.5532 2.63848 20.5 2.67172L1.01188 14.7159C0.963657 14.746 0.923913 14.7879 0.8964 14.8377C0.868887 14.8874 0.854512 14.9434 0.854634 15.0003V19.2224C0.854634 19.3111 0.889882 19.3962 0.952624 19.459C1.01537 19.5217 1.10046 19.557 1.18919 19.557H3.03931V37.7102H0.83456C0.745829 37.7102 0.660733 37.7454 0.59799 37.8082C0.535248 37.8709 0.5 37.956 0.5 38.0448C0.5 38.1335 0.535248 38.2186 0.59799 38.2813C0.660733 38.3441 0.745829 38.3793 0.83456 38.3793H8.42238C8.51111 38.3793 8.59621 38.3441 8.65895 38.2813C8.72169 38.2186 8.75694 38.1335 8.75694 38.0448C8.75694 37.956 8.72169 37.8709 8.65895 37.8082C8.59621 37.7454 8.51111 37.7102 8.42238 37.7102H6.98043V22.0193H34.3742V37.7102H30.2324C30.2932 37.5662 30.325 37.4115 30.326 37.2552V32.5446C30.3289 31.8045 30.2161 31.0685 29.9915 30.3633L29.8811 30.0287C30.6505 29.8162 31.102 29.0203 30.8896 28.2508C30.8025 27.9355 30.611 27.6589 30.3464 27.4665C30.0817 27.2741 29.7596 27.1772 29.4328 27.1916H28.4491C28.2785 26.74 27.4455 24.6523 26.2611 23.6018C26.2001 23.548 26.1216 23.5183 26.0403 23.5182H15.3143C15.233 23.5183 15.1545 23.548 15.0935 23.6018C13.8991 24.6523 13.0862 26.74 12.9055 27.1916H11.9219C11.1237 27.1915 10.4765 27.8384 10.4763 28.6367C10.4763 28.9441 10.5742 29.2435 10.756 29.4914C10.9377 29.7393 11.1938 29.9229 11.487 30.0153L11.3732 30.3499C11.1486 31.0551 11.0357 31.7911 11.0386 32.5312V37.215C11.0237 37.8167 11.4976 38.3176 12.0992 38.3358H14.6619C15.2636 38.3176 15.7375 37.8167 15.7225 37.215V36.5928H25.6422V37.215C25.6272 37.8167 26.1011 38.3176 26.7027 38.3358H39.9614C40.0501 38.3358 40.1352 38.3006 40.1979 38.2378C40.2607 38.1751 40.2959 38.09 40.2959 38.0013C40.2959 37.9125 40.2607 37.8274 40.1979 37.7647C40.1352 37.702 40.0501 37.6667 39.9614 37.6667H38.3153V19.557H40.1654C40.2542 19.557 40.3393 19.5217 40.402 19.459C40.4648 19.3962 40.5 19.3111 40.5 19.2224V15.0003C40.5001 14.9434 40.4857 14.8874 40.4582 14.8377C40.4307 14.7879 40.391 14.746 40.3428 14.7159ZM15.4448 24.2007V24.1806H25.9098C26.7897 25.017 27.4655 26.5225 27.7298 27.1916H13.6248C13.8891 26.5526 14.5649 25.0371 15.4448 24.2007ZM15.0333 37.2552C15.0398 37.3666 15.0025 37.4762 14.9294 37.5606C14.8563 37.645 14.7531 37.6974 14.6419 37.7068H12.0892C11.9779 37.6974 11.8747 37.645 11.8016 37.5606C11.7285 37.4762 11.6912 37.3666 11.6977 37.2552V36.6329H15.0433L15.0333 37.2552ZM29.6469 37.2552C29.6534 37.3666 29.6161 37.4762 29.543 37.5606C29.4699 37.645 29.3667 37.6974 29.2554 37.7068H26.7027C26.5915 37.6974 26.4883 37.645 26.4152 37.5606C26.3421 37.4762 26.3048 37.3666 26.3113 37.2552H26.3013V36.6329H29.6469V37.2552ZM29.6569 35.9772H11.6977V34.2174H14.5883C15.2084 34.2155 15.7106 33.7134 15.7124 33.0933V32.2769C15.7106 31.6574 15.2078 31.1562 14.5883 31.1562H11.855C11.898 30.9622 11.9494 30.7702 12.0089 30.5807L12.2297 29.9116L12.8419 28.831C12.8639 28.7927 12.8781 28.7506 12.8838 28.7069C12.8894 28.6631 12.8864 28.6187 12.875 28.5762C12.8635 28.5336 12.8437 28.4937 12.8168 28.4588C12.7899 28.4239 12.7564 28.3946 12.7181 28.3726C12.6799 28.3507 12.6377 28.3364 12.594 28.3308C12.5503 28.3251 12.5059 28.3281 12.4633 28.3396C12.4208 28.3511 12.3809 28.3708 12.346 28.3978C12.311 28.4247 12.2818 28.4582 12.2598 28.4964L11.7412 29.4165C11.5678 29.3782 11.4127 29.2816 11.3019 29.1427C11.1911 29.0039 11.1312 28.8313 11.1323 28.6537C11.1305 28.5493 11.1497 28.4457 11.1887 28.3489C11.2277 28.2521 11.2857 28.1641 11.3594 28.0902C11.433 28.0162 11.5207 27.9578 11.6173 27.9184C11.714 27.879 11.8175 27.8594 11.9219 27.8607H29.4328C29.6249 27.8587 29.8111 27.9276 29.9555 28.0544C30.0999 28.1812 30.1924 28.3569 30.2152 28.5477C30.238 28.7385 30.1896 28.931 30.0791 29.0883C29.9686 29.2455 29.804 29.3564 29.6168 29.3997L29.0948 28.4763C29.0505 28.3991 28.9773 28.3427 28.8913 28.3195C28.8054 28.2963 28.7137 28.3082 28.6365 28.3526C28.5593 28.3969 28.5029 28.4701 28.4797 28.5561C28.4565 28.642 28.4683 28.7337 28.5127 28.8109L29.125 29.8915L29.3458 30.5606C29.4053 30.7502 29.4566 30.9422 29.4997 31.1361H26.7663C26.1468 31.1361 25.644 31.6373 25.6422 32.2569V33.0598C25.6255 33.6823 26.1167 34.2003 26.7391 34.217C26.7482 34.2172 26.7573 34.2173 26.7663 34.2174H29.6569V35.9772ZM11.7446 31.8253H14.5783C14.6376 31.8248 14.6964 31.8361 14.7514 31.8584C14.8064 31.8807 14.8564 31.9136 14.8986 31.9552C14.9409 31.9968 14.9745 32.0464 14.9976 32.101C15.0207 32.1556 15.0329 32.2143 15.0333 32.2736V33.0799C15.0369 33.2005 14.9924 33.3176 14.9096 33.4054C14.8269 33.4932 14.7126 33.5446 14.592 33.5482L14.5883 33.5483H11.6977V32.5446C11.7002 32.3041 11.7159 32.064 11.7446 31.8253ZM29.6569 33.5483H26.7663C26.6456 33.5483 26.5299 33.5003 26.4446 33.415C26.3592 33.3297 26.3113 33.2139 26.3113 33.0933V32.2769C26.3113 32.1572 26.3589 32.0423 26.4436 31.9576C26.5283 31.8729 26.6432 31.8253 26.763 31.8253H29.6101C29.6388 32.064 29.6544 32.3041 29.6569 32.5446V33.5483ZM5.42138 16.8805V15.4185H35.9333V16.8805H5.42138ZM34.3742 21.3502H6.98043V19.8012H34.3742V21.3502ZM34.3742 19.1321H6.98043V17.5496H34.3742V19.1321ZM39.8309 18.8878H37.9808C37.892 18.8878 37.8069 18.9231 37.7442 18.9858C37.6814 19.0486 37.6462 19.1337 37.6462 19.2224V37.7102H35.0433V17.5496H36.2678C36.3565 17.5496 36.4416 17.5144 36.5044 17.4516C36.5671 17.3889 36.6024 17.3038 36.6024 17.215V15.0839C36.6024 14.9952 36.5671 14.9101 36.5044 14.8473C36.4416 14.7846 36.3565 14.7493 36.2678 14.7493H5.08682C4.99809 14.7493 4.91299 14.7846 4.85025 14.8473C4.78751 14.9101 4.75226 14.9952 4.75226 15.0839V17.215C4.75226 17.3038 4.78751 17.3889 4.85025 17.4516C4.91299 17.5144 4.99809 17.5496 5.08682 17.5496H6.31131V37.7102H3.70843V19.2224C3.70843 19.1337 3.67318 19.0486 3.61044 18.9858C3.5477 18.9231 3.4626 18.8878 3.37387 18.8878H1.52375V15.1843L20.6773 3.34753L39.8309 15.1843V18.8878Z" fill="black"/>
</g>
<defs>
<clipPath id="clip0_1_2865">
<rect width="40" height="40" fill="white" transform="translate(0.5 0.5)"/>
</clipPath>
</defs>
</svg>
