<svg width="41" height="41" viewBox="0 0 41 41" fill="none" xmlns="http://www.w3.org/2000/svg">
<g clip-path="url(#clip0_1_2828)">
<path d="M17.4648 9.13693L12.6214 5.3612V1.04839C12.6214 0.962068 12.5871 0.879278 12.5261 0.818235C12.465 0.757193 12.3822 0.7229 12.2959 0.7229C12.2096 0.7229 12.1268 0.757193 12.0658 0.818235C12.0047 0.879278 11.9704 0.962068 11.9704 1.04839V5.5272C11.9705 5.57691 11.982 5.62593 12.0041 5.6705C12.0261 5.71507 12.058 5.75402 12.0974 5.78434L16.3841 9.12391H13.7574C13.6711 9.12391 13.5883 9.1582 13.5272 9.21924C13.4662 9.28029 13.4319 9.36308 13.4319 9.4494C13.4319 9.53573 13.4662 9.61852 13.5272 9.67956C13.5883 9.74061 13.6711 9.7749 13.7574 9.7749H16.9375V11.0411H1.15099V9.7749H12.1169C12.2032 9.7749 12.286 9.74061 12.3471 9.67956C12.4081 9.61852 12.4424 9.53573 12.4424 9.4494C12.4424 9.36308 12.4081 9.28029 12.3471 9.21924C12.286 9.1582 12.2032 9.12391 12.1169 9.12391H1.70108L5.9911 5.78434C6.03048 5.75402 6.06241 5.71507 6.08441 5.6705C6.10641 5.62593 6.11792 5.57691 6.11804 5.5272V1.04839C6.11804 0.962068 6.08374 0.879278 6.0227 0.818235C5.96166 0.757193 5.87887 0.7229 5.79254 0.7229C5.70622 0.7229 5.62343 0.757193 5.56238 0.818235C5.50134 0.879278 5.46705 0.962068 5.46705 1.04839V5.3612L0.623693 9.13693C0.584896 9.16758 0.553593 9.20667 0.532162 9.25122C0.51073 9.29578 0.499733 9.34463 0.500005 9.39407V11.3666C0.500005 11.4529 0.534298 11.5357 0.59534 11.5967C0.656382 11.6578 0.739173 11.6921 0.825499 11.6921H17.263C17.3493 11.6921 17.4321 11.6578 17.4931 11.5967C17.5542 11.5357 17.5885 11.4529 17.5885 11.3666V9.39407C17.5887 9.34463 17.5777 9.29578 17.5563 9.25122C17.5349 9.20667 17.5036 9.16758 17.4648 9.13693Z" fill="black"/>
<path d="M2.24449 10.1233H2.20543C2.12001 10.1246 2.03854 10.1595 1.97861 10.2204C1.91868 10.2813 1.88509 10.3633 1.88509 10.4487C1.88509 10.5342 1.91868 10.6162 1.97861 10.6771C2.03854 10.738 2.12001 10.7728 2.20543 10.7742H2.24449C2.32992 10.7728 2.41139 10.738 2.47132 10.6771C2.53125 10.6162 2.56484 10.5342 2.56484 10.4487C2.56484 10.3633 2.53125 10.2813 2.47132 10.2204C2.41139 10.1595 2.32992 10.1246 2.24449 10.1233ZM3.54322 10.1233H3.50416C3.41873 10.1246 3.33726 10.1595 3.27733 10.2204C3.2174 10.2813 3.18381 10.3633 3.18381 10.4487C3.18381 10.5342 3.2174 10.6162 3.27733 10.6771C3.33726 10.738 3.41873 10.7728 3.50416 10.7742H3.54322C3.62864 10.7728 3.71011 10.738 3.77004 10.6771C3.82997 10.6162 3.86356 10.5342 3.86356 10.4487C3.86356 10.3633 3.82997 10.2813 3.77004 10.2204C3.71011 10.1595 3.62864 10.1246 3.54322 10.1233ZM17.1749 17.1768H0.900201C0.813875 17.1768 0.731084 17.211 0.670042 17.2721C0.609 17.3331 0.574707 17.4159 0.574707 17.5022V38.8579C0.574707 38.9443 0.609 39.0271 0.670042 39.0881C0.731084 39.1491 0.813875 39.1834 0.900201 39.1834H17.1749C17.2612 39.1834 17.344 39.1491 17.4051 39.0881C17.4661 39.0271 17.5004 38.9443 17.5004 38.8579V17.5022C17.5004 17.4159 17.4661 17.3331 17.4051 17.2721C17.344 17.211 17.2612 17.1768 17.1749 17.1768ZM1.2257 17.8277H16.8494V21.6914H1.2257V17.8277ZM16.8494 38.5324H1.2257V35.0366H16.8494V38.5324ZM16.8494 34.3856H1.2257V33.0413H6.05278V33.3668C6.05278 33.4532 6.08707 33.536 6.14811 33.597C6.20915 33.658 6.29194 33.6923 6.37827 33.6923H11.7099C11.7962 33.6923 11.879 33.658 11.94 33.597C12.0011 33.536 12.0354 33.4532 12.0354 33.3668V33.0413H16.8494V34.3856ZM16.8494 32.3904H11.7099C11.6235 32.3904 11.5408 32.4247 11.4797 32.4857C11.4187 32.5467 11.3844 32.6295 11.3844 32.7159V33.0413H6.70377V32.7159C6.70377 32.6295 6.66947 32.5467 6.60843 32.4857C6.54739 32.4247 6.4646 32.3904 6.37827 32.3904H1.23872V22.3423H16.8624L16.8494 32.3904Z" fill="black"/>
<path d="M14.7731 23.4425H3.31567C3.22935 23.4425 3.14656 23.4768 3.08551 23.5378C3.02447 23.5989 2.99018 23.6817 2.99018 23.768C2.99018 23.8543 3.02447 23.9371 3.08551 23.9981C3.14656 24.0592 3.22935 24.0935 3.31567 24.0935H14.7731C14.8594 24.0935 14.9422 24.0592 15.0032 23.9981C15.0643 23.9371 15.0986 23.8543 15.0986 23.768C15.0986 23.6817 15.0643 23.5989 15.0032 23.5378C14.9422 23.4768 14.8594 23.4425 14.7731 23.4425ZM3.71603 18.7977C3.20907 18.7977 2.79814 19.2086 2.79814 19.7156C2.79635 20.2207 3.20435 20.6317 3.70952 20.6335H3.71603C4.22299 20.6335 4.63393 20.2225 4.63393 19.7156C4.63393 19.2086 4.22299 18.7977 3.71603 18.7977ZM3.71603 19.9825C3.64524 19.9825 3.57736 19.9544 3.5273 19.9043C3.47725 19.8543 3.44913 19.7864 3.44913 19.7156C3.44913 19.6448 3.47725 19.5769 3.5273 19.5268C3.57736 19.4768 3.64524 19.4487 3.71603 19.4487C3.78682 19.4487 3.85471 19.4768 3.90476 19.5268C3.95482 19.5769 3.98294 19.6448 3.98294 19.7156C3.98294 19.7864 3.95482 19.8543 3.90476 19.9043C3.85471 19.9544 3.78682 19.9825 3.71603 19.9825ZM7.26718 18.7977C6.76022 18.7977 6.34928 19.2086 6.34928 19.7156C6.34928 20.2225 6.76022 20.6335 7.26718 20.6335C7.77413 20.6335 8.18507 20.2225 8.18507 19.7156C8.18507 19.2086 7.77413 18.7977 7.26718 18.7977ZM7.26718 19.9825C7.19639 19.9825 7.1285 19.9544 7.07844 19.9043C7.02839 19.8543 7.00027 19.7864 7.00027 19.7156C7.00027 19.6448 7.02839 19.5769 7.07844 19.5268C7.1285 19.4768 7.19639 19.4487 7.26718 19.4487C7.33796 19.4487 7.40585 19.4768 7.45591 19.5268C7.50596 19.5769 7.53408 19.6448 7.53408 19.7156C7.53408 19.7864 7.50596 19.8543 7.45591 19.9043C7.40585 19.9544 7.33796 19.9825 7.26718 19.9825ZM10.8216 18.7977C10.3146 18.7977 9.90368 19.2086 9.90368 19.7156C9.90368 20.2225 10.3146 20.6335 10.8216 20.6335C11.3285 20.6335 11.7395 20.2225 11.7395 19.7156C11.7395 19.2086 11.3285 18.7977 10.8216 18.7977ZM10.8216 19.9825C10.7508 19.9825 10.6829 19.9544 10.6328 19.9043C10.5828 19.8543 10.5547 19.7864 10.5547 19.7156C10.5547 19.6448 10.5828 19.5769 10.6328 19.5268C10.6829 19.4768 10.7508 19.4487 10.8216 19.4487C10.8924 19.4487 10.9602 19.4768 11.0103 19.5268C11.0604 19.5769 11.0885 19.6448 11.0885 19.7156C11.0885 19.7864 11.0604 19.8543 11.0103 19.9043C10.9602 19.9544 10.8924 19.9825 10.8216 19.9825ZM14.376 18.7977C13.869 18.7977 13.4581 19.2086 13.4581 19.7156C13.4563 20.2207 13.8643 20.6317 14.3695 20.6335H14.376C14.8829 20.6335 15.2939 20.2225 15.2939 19.7156C15.2939 19.2086 14.8829 18.7977 14.376 18.7977ZM14.376 19.9825C14.3052 19.9825 14.2373 19.9544 14.1872 19.9043C14.1372 19.8543 14.1091 19.7864 14.1091 19.7156C14.1091 19.6448 14.1372 19.5769 14.1872 19.5268C14.2373 19.4768 14.3052 19.4487 14.376 19.4487C14.4468 19.4487 14.5146 19.4768 14.5647 19.5268C14.6148 19.5769 14.6429 19.6448 14.6429 19.7156C14.6429 19.7864 14.6148 19.8543 14.5647 19.9043C14.5146 19.9544 14.4468 19.9825 14.376 19.9825ZM15.4468 39.6261H14.415C14.3287 39.6261 14.2459 39.6604 14.1849 39.7214C14.1238 39.7824 14.0895 39.8652 14.0895 39.9516C14.0895 40.0379 14.1238 40.1207 14.1849 40.1817C14.2459 40.2428 14.3287 40.2771 14.415 40.2771H15.4468C15.5332 40.2771 15.616 40.2428 15.677 40.1817C15.738 40.1207 15.7723 40.0379 15.7723 39.9516C15.7723 39.8652 15.738 39.7824 15.677 39.7214C15.616 39.6604 15.5332 39.6261 15.4468 39.6261ZM3.67372 39.6261H2.6419C2.55557 39.6261 2.47278 39.6604 2.41174 39.7214C2.3507 39.7824 2.31641 39.8652 2.31641 39.9516C2.31641 40.0379 2.3507 40.1207 2.41174 40.1817C2.47278 40.2428 2.55557 40.2771 2.6419 40.2771H3.67372C3.76004 40.2771 3.84283 40.2428 3.90388 40.1817C3.96492 40.1207 3.99921 40.0379 3.99921 39.9516C3.99921 39.8652 3.96492 39.7824 3.90388 39.7214C3.84283 39.6604 3.76004 39.6261 3.67372 39.6261ZM40.1747 5.44916H28.6554C28.6337 5.44729 28.612 5.44729 28.5903 5.44916C28.5686 5.44761 28.5469 5.44761 28.5252 5.44916H19.2128C19.1265 5.44916 19.0437 5.48345 18.9827 5.54449C18.9216 5.60553 18.8873 5.68833 18.8873 5.77465V39.932C18.8873 40.0184 18.9216 40.1011 18.9827 40.1622C19.0437 40.2232 19.1265 40.2575 19.2128 40.2575H40.1747C40.261 40.2575 40.3438 40.2232 40.4048 40.1622C40.4659 40.1011 40.5001 40.0184 40.5001 39.932V5.77465C40.5001 5.68833 40.4659 5.60553 40.4048 5.54449C40.3438 5.48345 40.261 5.44916 40.1747 5.44916ZM19.5383 6.10015H28.2648V38.2655H19.5383V6.10015ZM39.8492 39.6065H19.5383V38.9165H39.8492V39.6065ZM39.8492 38.2655H28.9158V6.10015H39.8492V38.2655Z" fill="black"/>
<path d="M26.7283 18.0165H20.928C20.8417 18.0165 20.7589 18.0508 20.6979 18.1118C20.6368 18.1729 20.6025 18.2557 20.6025 18.342V24.0967C20.6025 24.1831 20.6368 24.2659 20.6979 24.3269C20.7589 24.3879 20.8417 24.4222 20.928 24.4222H26.7283C26.8147 24.4222 26.8975 24.3879 26.9585 24.3269C27.0195 24.2659 27.0538 24.1831 27.0538 24.0967V18.342C27.0538 18.2557 27.0195 18.1729 26.9585 18.1118C26.8975 18.0508 26.8147 18.0165 26.7283 18.0165ZM26.4028 23.7713H21.2535V20.3926H21.7483V21.6555C21.7483 21.7419 21.7826 21.8247 21.8436 21.8857C21.9047 21.9467 21.9874 21.981 22.0738 21.981H23.2325C23.3189 21.981 23.4016 21.9467 23.4627 21.8857C23.5237 21.8247 23.558 21.7419 23.558 21.6555V20.3926H24.0886V21.6555C24.0886 21.7419 24.1229 21.8247 24.1839 21.8857C24.245 21.9467 24.3278 21.981 24.4141 21.981H25.5728C25.6592 21.981 25.742 21.9467 25.803 21.8857C25.864 21.8247 25.8983 21.7419 25.8983 21.6555V20.3926H26.4028V23.7713ZM22.3993 21.33V20.3926H22.907V21.33H22.3993ZM24.7396 21.33V20.3926H25.2473V21.33H24.7396ZM26.4028 19.7416H21.2535V18.6675H26.4028V19.7416ZM31.0704 10.1135L30.094 9.46252C30.0219 9.41461 29.9337 9.39729 29.8489 9.41439C29.764 9.43148 29.6894 9.48158 29.6415 9.55366C29.5936 9.62574 29.5763 9.7139 29.5934 9.79875C29.6105 9.8836 29.6606 9.95818 29.7327 10.0061L30.5627 10.5692V35.0138C30.5627 35.1002 30.597 35.1829 30.658 35.244C30.719 35.305 30.8018 35.3393 30.8882 35.3393C30.9745 35.3393 31.0573 35.305 31.1183 35.244C31.1794 35.1829 31.2137 35.1002 31.2137 35.0138V10.3869C31.2143 10.3331 31.2015 10.2799 31.1765 10.2322C31.1515 10.1844 31.1151 10.1437 31.0704 10.1135Z" fill="black"/>
</g>
<defs>
<clipPath id="clip0_1_2828">
<rect width="40" height="40" fill="white" transform="translate(0.5 0.5)"/>
</clipPath>
</defs>
</svg>
