<svg width="41" height="41" viewBox="0 0 41 41" fill="none" xmlns="http://www.w3.org/2000/svg">
<g clip-path="url(#clip0_1_2842)">
<path d="M24.7048 39.8252H15.0753C14.9879 39.8252 14.9042 39.8598 14.8425 39.9216C14.7807 39.9833 14.746 40.0671 14.746 40.1544C14.746 40.2417 14.7807 40.3254 14.8425 40.3872C14.9042 40.4489 14.9879 40.4836 15.0753 40.4836H24.7048C24.7921 40.4836 24.8758 40.4489 24.9376 40.3872C24.9993 40.3254 25.034 40.2417 25.034 40.1544C25.034 40.0671 24.9993 39.9833 24.9376 39.9216C24.8758 39.8598 24.7921 39.8252 24.7048 39.8252ZM13.2909 39.8252H11.7271C11.6398 39.8252 11.5561 39.8598 11.4944 39.9216C11.4326 39.9833 11.3979 40.0671 11.3979 40.1544C11.3979 40.2417 11.4326 40.3254 11.4944 40.3872C11.5561 40.4489 11.6398 40.4836 11.7271 40.4836H13.2909C13.3782 40.4836 13.462 40.4489 13.5237 40.3872C13.5854 40.3254 13.6201 40.2417 13.6201 40.1544C13.6201 40.0671 13.5854 39.9833 13.5237 39.9216C13.462 39.8598 13.3782 39.8252 13.2909 39.8252ZM38.2816 39.8252H35.2265C35.3871 39.6021 35.4829 39.3388 35.503 39.0647L35.9014 33.0302C36.3905 32.9705 36.7387 32.5256 36.679 32.0365C36.6527 31.8212 36.5489 31.6229 36.387 31.4786C36.2251 31.3342 36.0162 31.2538 35.7993 31.2524H32.8364V29.8302C34.8606 29.7412 36.4299 28.029 36.3425 26.0047C36.3425 25.9174 36.3078 25.8337 36.2461 25.7719C36.1844 25.7102 36.1006 25.6755 36.0133 25.6755C35.5043 25.6543 34.9964 25.7387 34.5216 25.9234C34.0468 26.1081 33.6154 26.3891 33.2545 26.7487C33.0938 26.9097 32.9493 27.0862 32.8232 27.2755V25.6294C34.8458 25.5386 36.4145 23.8301 36.3327 21.8072C36.3327 21.7199 36.298 21.6362 36.2362 21.5744C36.1745 21.5127 36.0907 21.478 36.0034 21.478C35.4959 21.4599 34.9901 21.5468 34.5176 21.7331C34.0452 21.9195 33.6163 22.2014 33.2578 22.5611C33.0971 22.7221 32.9526 22.8985 32.8265 23.0879V22.2122C34.2588 20.7774 34.2569 18.4533 32.8222 17.0209C32.7849 16.9837 32.7468 16.9474 32.708 16.9118C32.6471 16.8553 32.5672 16.824 32.4841 16.824C32.4011 16.824 32.3211 16.8553 32.2603 16.9118C30.7652 18.281 30.6632 20.603 32.0324 22.098C32.0763 22.146 32.1216 22.1929 32.1681 22.2385V23.0681C32.0433 22.8867 31.9023 22.717 31.7467 22.5611C31.3867 22.1997 30.9556 21.9169 30.4808 21.7304C30.0059 21.544 29.4976 21.4581 28.9879 21.478C28.9006 21.478 28.8168 21.5127 28.7551 21.5744C28.6933 21.6362 28.6587 21.7199 28.6587 21.8072C28.5768 23.8301 30.1456 25.5386 32.1681 25.6294V27.2755C31.8174 26.7619 31.3409 26.3467 30.7842 26.0695C30.2275 25.7923 29.6091 25.6623 28.9879 25.692C28.9006 25.692 28.8168 25.7266 28.7551 25.7884C28.6933 25.8501 28.6587 25.9339 28.6587 26.0212C28.5806 28.0403 30.1493 29.7429 32.1681 29.8302V31.2524H29.2052C28.7124 31.2557 28.3157 31.6578 28.319 32.1505C28.3204 32.3674 28.4008 32.5763 28.5451 32.7382C28.6895 32.9001 28.8878 33.0039 29.1031 33.0302L29.5014 39.0647C29.5216 39.3388 29.6173 39.6021 29.778 39.8252H27.0883C27.001 39.8252 26.9173 39.8598 26.8555 39.9216C26.7938 39.9833 26.7591 40.0671 26.7591 40.1544C26.7591 40.2417 26.7938 40.3254 26.8555 40.3872C26.9173 40.4489 27.001 40.4836 27.0883 40.4836H38.2816C38.3689 40.4836 38.4527 40.4489 38.5144 40.3872C38.5761 40.3254 38.6108 40.2417 38.6108 40.1544C38.6108 40.0671 38.5761 39.9833 38.5144 39.9216C38.4527 39.8598 38.3689 39.8252 38.2816 39.8252ZM33.722 27.2261H33.7319C34.2514 26.704 34.9455 26.3922 35.6808 26.3504C35.5843 27.8699 34.3724 29.0802 32.8529 29.1751C32.8948 28.441 33.2039 27.7478 33.722 27.2261ZM35.6709 22.1364C35.6334 22.8812 35.3201 23.5853 34.7919 24.1117L34.7985 24.0953C34.2787 24.6175 33.5851 24.9303 32.8496 24.9743C32.9394 23.4521 34.1492 22.2351 35.6709 22.1364ZM30.2126 24.1117C29.6844 23.5853 29.3711 22.8812 29.3335 22.1364C30.8543 22.2314 32.0665 23.4437 32.1615 24.9644C31.4296 24.9276 30.7363 24.6243 30.2126 24.1117ZM30.2126 28.2961V28.3125C29.6903 27.7941 29.3774 27.1014 29.3335 26.3669C30.8544 26.4588 32.0678 27.6707 32.1615 29.1915C31.4228 29.1469 30.7276 28.8275 30.2126 28.2961ZM32.494 17.6229C33.504 18.765 33.504 20.4808 32.494 21.6229C31.484 20.4809 31.484 18.765 32.494 17.6229ZM34.0281 39.7889C33.9776 39.7888 33.9278 39.8013 33.8833 39.8252H31.1212C31.0766 39.8013 31.0269 39.7888 30.9763 39.7889C30.7677 39.7878 30.5672 39.7077 30.4151 39.5648C30.2631 39.4219 30.1707 39.2268 30.1566 39.0186L29.7615 33.0367H30.0907C30.1781 33.0367 30.2618 33.0021 30.3235 32.9403C30.3853 32.8786 30.42 32.7948 30.42 32.7075C30.42 32.6202 30.3853 32.5365 30.3235 32.4747C30.2618 32.413 30.1781 32.3783 30.0907 32.3783H29.2019C29.1712 32.3784 29.1408 32.3724 29.1124 32.3606C29.084 32.3489 29.0582 32.3318 29.0365 32.3101C29.0147 32.2884 28.9975 32.2627 28.9857 32.2343C28.9739 32.206 28.9678 32.1756 28.9678 32.1449C28.9677 32.1142 28.9737 32.0838 28.9855 32.0554C28.9972 32.0271 29.0143 32.0013 29.036 31.9795C29.0577 31.9578 29.0834 31.9405 29.1118 31.9287C29.1401 31.917 29.1705 31.9109 29.2012 31.9108H35.7862C35.8183 31.9086 35.8505 31.9129 35.8807 31.9237C35.911 31.9344 35.9388 31.9513 35.9623 31.9732C35.9857 31.9951 36.0045 32.0217 36.0172 32.0511C36.03 32.0806 36.0365 32.1124 36.0364 32.1446C36.0356 32.2063 36.0107 32.2653 35.967 32.3089C35.9234 32.3526 35.8644 32.3775 35.8027 32.3783H31.5822C31.4949 32.3783 31.4111 32.413 31.3494 32.4747C31.2876 32.5365 31.253 32.6202 31.253 32.7075C31.253 32.7948 31.2876 32.8786 31.3494 32.9403C31.4111 33.0021 31.4949 33.0367 31.5822 33.0367H35.2463L34.848 39.0186C34.8338 39.2268 34.7415 39.4219 34.5894 39.5648C34.4373 39.7077 34.2368 39.7878 34.0281 39.7889ZM16.6654 27.8682H13.2909C13.2036 27.8682 13.1199 27.9028 13.0581 27.9646C12.9964 28.0263 12.9617 28.1101 12.9617 28.1974C12.9617 28.2847 12.9964 28.3684 13.0581 28.4302C13.1199 28.4919 13.2036 28.5266 13.2909 28.5266H16.6654C16.7527 28.5266 16.8364 28.4919 16.8982 28.4302C16.9599 28.3684 16.9946 28.2847 16.9946 28.1974C16.9946 28.1101 16.9599 28.0263 16.8982 27.9646C16.8364 27.9028 16.7527 27.8682 16.6654 27.8682ZM10.4893 34.5643H9.91646C9.82915 34.5643 9.74541 34.599 9.68367 34.6607C9.62193 34.7225 9.58725 34.8062 9.58725 34.8935C9.58725 34.9808 9.62193 35.0646 9.68367 35.1263C9.74541 35.188 9.82915 35.2227 9.91646 35.2227H10.4893C10.5766 35.2227 10.6603 35.188 10.7221 35.1263C10.7838 35.0646 10.8185 34.9808 10.8185 34.8935C10.8185 34.8062 10.7838 34.7225 10.7221 34.6607C10.6603 34.599 10.5766 34.5643 10.4893 34.5643ZM8.53047 34.5643H6.78234C6.69503 34.5643 6.61129 34.599 6.54955 34.6607C6.48781 34.7225 6.45312 34.8062 6.45312 34.8935C6.45312 34.9808 6.48781 35.0646 6.54955 35.1263C6.61129 35.188 6.69503 35.2227 6.78234 35.2227H8.53047C8.61778 35.2227 8.70152 35.188 8.76326 35.1263C8.825 35.0646 8.85968 34.9808 8.85968 34.8935C8.85968 34.8062 8.825 34.7225 8.76326 34.6607C8.70152 34.599 8.61778 34.5643 8.53047 34.5643Z" fill="black"/>
<path d="M35.8353 13.4814H31.4238V5.93578H35.4567C35.544 5.93578 35.6277 5.9011 35.6894 5.83936C35.7512 5.77762 35.7859 5.69388 35.7859 5.60657C35.7859 5.51926 35.7512 5.43552 35.6894 5.37378C35.6277 5.31204 35.544 5.27736 35.4567 5.27736H31.4238V1.16217H35.4567C35.544 1.16217 35.6277 1.12749 35.6894 1.06575C35.7512 1.00401 35.7859 0.92027 35.7859 0.832957C35.7859 0.745643 35.7512 0.661906 35.6894 0.600167C35.6277 0.538427 35.544 0.503742 35.4567 0.503742H31.1275C31.0823 0.496605 31.036 0.499703 30.9921 0.512808C30.9483 0.525912 30.9079 0.548689 30.874 0.579461L3.00597 24.6549C2.2649 25.2906 2.17956 26.4068 2.81535 27.1478C2.96091 27.3175 3.1373 27.458 3.33518 27.5619H3.34506C3.63172 27.7112 3.95373 27.7794 4.27632 27.7591C4.59891 27.7388 4.90982 27.6308 5.17549 27.4467C5.2474 27.3972 5.2967 27.3211 5.31254 27.2352C5.32837 27.1494 5.30945 27.0607 5.25993 26.9888L5.2578 26.9858C5.20795 26.9143 5.13179 26.8655 5.046 26.85C4.96022 26.8346 4.87182 26.8538 4.80019 26.9035C4.29443 27.2526 3.60143 27.1256 3.2523 26.6199C3.12539 26.436 3.05676 26.2182 3.05535 25.9948C3.05523 25.8349 3.08957 25.6769 3.15604 25.5314C3.22251 25.386 3.31954 25.2566 3.44053 25.152L8.47093 20.8196V32.7734H3.71378C3.62647 32.7734 3.54273 32.8081 3.48099 32.8698C3.41925 32.9315 3.38456 33.0153 3.38456 33.1026C3.38456 33.1899 3.41925 33.2736 3.48099 33.3354C3.54273 33.3971 3.62647 33.4318 3.71378 33.4318H4.37221V40.1708C4.37221 40.2581 4.40689 40.3419 4.46863 40.4036C4.53037 40.4654 4.61411 40.5 4.70142 40.5H10.1335C10.2208 40.5 10.3045 40.4654 10.3663 40.4036C10.428 40.3419 10.4627 40.2581 10.4627 40.1708C10.4627 40.0835 10.428 39.9998 10.3663 39.938C10.3045 39.8763 10.2208 39.8416 10.1335 39.8416H5.03064V33.4153H11.8421C11.9294 33.4153 12.0131 33.3806 12.0749 33.3189C12.1366 33.2572 12.1713 33.1734 12.1713 33.0861V26.9891H19.8025C19.8898 26.9891 19.9736 26.9544 20.0353 26.8926C20.097 26.8309 20.1317 26.7472 20.1317 26.6599V20.5628H27.0156C27.1029 20.5628 27.1866 20.5281 27.2484 20.4664C27.3101 20.4046 27.3448 20.3209 27.3448 20.2336V14.1398H35.506V20.576C35.506 20.6633 35.5407 20.747 35.6025 20.8088C35.6642 20.8705 35.7479 20.9052 35.8353 20.9052C35.9226 20.9052 36.0063 20.8705 36.068 20.8088C36.1298 20.747 36.1645 20.6633 36.1645 20.576V13.8106C36.1645 13.7233 36.1298 13.6396 36.068 13.5778C36.0063 13.5161 35.9226 13.4814 35.8353 13.4814ZM15.8947 26.3306H10.8347C10.7474 26.3306 10.6636 26.3653 10.6019 26.4271C10.5402 26.4888 10.5055 26.5725 10.5055 26.6599C10.5055 26.7472 10.5402 26.8309 10.6019 26.8926C10.6636 26.9544 10.7474 26.9891 10.8347 26.9891H11.5129V32.7569H9.12936V25.0138L15.8947 19.1735V26.3306ZM15.8947 18.2912L9.12936 24.1414V20.2336L15.8947 14.3834V18.2912ZM23.335 19.9044H18.7951C18.7078 19.9044 18.6241 19.9391 18.5623 20.0009C18.5006 20.0626 18.4659 20.1463 18.4659 20.2337C18.4659 20.321 18.5006 20.4047 18.5623 20.4665C18.6241 20.5282 18.7078 20.5629 18.7951 20.5629H19.4733V26.3307H16.5532V18.5942L23.335 12.744V19.9044ZM23.335 11.8749L16.5532 17.725V13.814L23.335 7.98029V11.8749ZM30.7654 13.4814L27.0222 13.4913H26.0214C25.9341 13.4913 25.8503 13.5259 25.7886 13.5877C25.7268 13.6494 25.6922 13.7332 25.6922 13.8205C25.6922 13.9078 25.7268 13.9915 25.7886 14.0533C25.8503 14.115 25.9341 14.1497 26.0214 14.1497H26.6798V19.9044H23.9934V12.1744L30.7654 6.33414V13.4814ZM30.7654 5.45521L23.9934 11.3054V7.39429L30.7654 1.54414V5.45521Z" fill="black"/>
</g>
<defs>
<clipPath id="clip0_1_2842">
<rect width="40" height="40" fill="white" transform="translate(0.5 0.5)"/>
</clipPath>
</defs>
</svg>
