<svg width="25" height="25" viewBox="0 0 25 25" fill="none" xmlns="http://www.w3.org/2000/svg">
<path d="M8.9001 7.13701C9.00516 7.05822 9.12471 7.00089 9.25192 6.9683C9.37913 6.93571 9.51152 6.92849 9.64152 6.94706C9.77152 6.96563 9.8966 7.00963 10.0096 7.07654C10.1226 7.14344 10.2213 7.23195 10.3001 7.33701C10.3789 7.44207 10.4362 7.56162 10.4688 7.68883C10.5014 7.81604 10.5086 7.94843 10.49 8.07843C10.4715 8.20844 10.4275 8.33351 10.3606 8.44651C10.2937 8.5595 10.2052 8.65822 10.1001 8.73701C8.5361 9.91001 7.6401 11.051 7.1271 12.047C7.83147 11.8657 8.57483 11.9083 9.25386 12.169C9.93289 12.4296 10.5138 12.8953 10.916 13.5014C11.3181 14.1074 11.5215 14.8237 11.4978 15.5506C11.474 16.2776 11.2244 16.9791 10.7836 17.5576C10.3429 18.1362 9.73277 18.563 9.0382 18.7789C8.34362 18.9947 7.59907 18.9888 6.90801 18.7619C6.21696 18.5351 5.61374 18.0986 5.18221 17.5131C4.75067 16.9276 4.51226 16.2222 4.5001 15.495C4.37339 14.267 4.54775 13.0265 5.0081 11.881C5.6051 10.375 6.7721 8.73301 8.9001 7.13701ZM17.9001 7.13701C18.0052 7.05822 18.1247 7.00089 18.2519 6.9683C18.3791 6.93571 18.5115 6.92849 18.6415 6.94706C18.7715 6.96563 18.8966 7.00963 19.0096 7.07654C19.1226 7.14344 19.2213 7.23195 19.3001 7.33701C19.3789 7.44207 19.4362 7.56162 19.4688 7.68883C19.5014 7.81604 19.5086 7.94843 19.4901 8.07843C19.4715 8.20844 19.4275 8.33351 19.3606 8.44651C19.2937 8.5595 19.2052 8.65822 19.1001 8.73701C17.5361 9.91001 16.6401 11.051 16.1271 12.047C16.8315 11.8657 17.5748 11.9083 18.2539 12.169C18.9329 12.4296 19.5138 12.8953 19.916 13.5014C20.3181 14.1074 20.5215 14.8237 20.4978 15.5506C20.474 16.2776 20.2244 16.9791 19.7836 17.5576C19.3429 18.1362 18.7328 18.563 18.0382 18.7789C17.3436 18.9947 16.5991 18.9888 15.908 18.7619C15.217 18.5351 14.6137 18.0986 14.1822 17.5131C13.7507 16.9276 13.5123 16.2222 13.5001 15.495C13.3734 14.267 13.5477 13.0265 14.0081 11.881C14.6061 10.375 15.7721 8.73301 17.9001 7.13701Z" fill="white"/>
</svg>
