<svg width="25" height="25" viewBox="0 0 25 25" fill="none" xmlns="http://www.w3.org/2000/svg">
<path d="M8.9001 7.17852C9.00516 7.09972 9.12471 7.04239 9.25192 7.0098C9.37913 6.97721 9.51152 6.96999 9.64152 6.98857C9.77152 7.00714 9.8966 7.05113 10.0096 7.11804C10.1226 7.18495 10.2213 7.27346 10.3001 7.37852C10.3789 7.48357 10.4362 7.60312 10.4688 7.73033C10.5014 7.85755 10.5086 7.98994 10.49 8.11994C10.4715 8.24994 10.4275 8.37501 10.3606 8.48801C10.2937 8.60101 10.2052 8.69972 10.1001 8.77852C8.5361 9.95152 7.6401 11.0925 7.1271 12.0885C7.83147 11.9072 8.57483 11.9498 9.25386 12.2105C9.93289 12.4711 10.5138 12.9368 10.916 13.5429C11.3181 14.1489 11.5215 14.8652 11.4978 15.5922C11.474 16.3191 11.2244 17.0206 10.7836 17.5991C10.3429 18.1777 9.73277 18.6045 9.0382 18.8204C8.34362 19.0362 7.59907 19.0303 6.90801 18.8034C6.21696 18.5766 5.61374 18.1401 5.18221 17.5546C4.75067 16.9691 4.51226 16.2637 4.5001 15.5365C4.37339 14.3085 4.54775 13.068 5.0081 11.9225C5.6051 10.4165 6.7721 8.77452 8.9001 7.17852ZM17.9001 7.17852C18.0052 7.09972 18.1247 7.04239 18.2519 7.0098C18.3791 6.97721 18.5115 6.96999 18.6415 6.98857C18.7715 7.00714 18.8966 7.05113 19.0096 7.11804C19.1226 7.18495 19.2213 7.27346 19.3001 7.37852C19.3789 7.48357 19.4362 7.60312 19.4688 7.73033C19.5014 7.85755 19.5086 7.98994 19.4901 8.11994C19.4715 8.24994 19.4275 8.37501 19.3606 8.48801C19.2937 8.60101 19.2052 8.69972 19.1001 8.77852C17.5361 9.95152 16.6401 11.0925 16.1271 12.0885C16.8315 11.9072 17.5748 11.9498 18.2539 12.2105C18.9329 12.4711 19.5138 12.9368 19.916 13.5429C20.3181 14.1489 20.5215 14.8652 20.4978 15.5922C20.474 16.3191 20.2244 17.0206 19.7836 17.5991C19.3429 18.1777 18.7328 18.6045 18.0382 18.8204C17.3436 19.0362 16.5991 19.0303 15.908 18.8034C15.217 18.5766 14.6137 18.1401 14.1822 17.5546C13.7507 16.9691 13.5123 16.2637 13.5001 15.5365C13.3734 14.3085 13.5477 13.068 14.0081 11.9225C14.6061 10.4165 15.7721 8.77452 17.9001 7.17852Z" fill="#101014"/>
</svg>
