<svg width="41" height="41" viewBox="0 0 41 41" fill="none" xmlns="http://www.w3.org/2000/svg">
<g clip-path="url(#clip0_1_2876)">
<path d="M39.3787 9.75551L39.3689 9.75559H38.429V7.26977C38.429 7.18381 38.3949 7.10138 38.3341 7.0406C38.2733 6.97982 38.1909 6.94567 38.1049 6.94567H34.7927V1.01794C34.7927 0.931988 34.7585 0.849553 34.6977 0.788773C34.637 0.727993 34.5545 0.693848 34.4686 0.693848H4.51557C4.42961 0.693848 4.34717 0.727993 4.28639 0.788773C4.22561 0.849553 4.19147 0.931988 4.19147 1.01794V32.9479H4.091C2.05648 32.9999 0.449288 34.6913 0.501224 36.7257C0.546841 38.5132 1.86907 40.01 3.63726 40.2758C3.67899 40.2948 3.72429 40.3047 3.77014 40.3049H30.4951C30.5135 40.3065 30.5319 40.3065 30.5502 40.3049H30.7641C32.7509 40.3049 34.8024 38.9534 34.8024 36.6945V16.3898L39.6185 15.3365C39.8675 15.2814 40.0904 15.1433 40.2505 14.9448C40.4107 14.7464 40.4987 14.4994 40.5 14.2443V10.877C40.5001 10.2576 39.998 9.75559 39.3787 9.75551ZM4.07479 39.6697C2.39759 39.6704 1.03736 38.3115 1.03663 36.6343C1.0359 34.9571 2.39484 33.5969 4.07204 33.5961H28.677C26.9998 34.7395 26.567 37.0259 27.7103 38.7031C27.9693 39.0829 28.2971 39.4108 28.677 39.6697H4.07479ZM34.1542 15.868L31.2373 16.5162C30.9416 16.5825 30.6768 16.7465 30.4857 16.9817C30.2946 17.2169 30.1883 17.5096 30.184 17.8126V18.6877C29.9228 18.758 29.6918 18.9121 29.5267 19.1264C29.3616 19.3407 29.2714 19.6033 29.2701 19.8739V28.2388C29.2351 28.9217 29.7603 29.5036 30.4431 29.5386C31.126 29.5736 31.7079 29.0484 31.7429 28.3655C31.7451 28.3234 31.7451 28.2811 31.7429 28.2389V19.8804C31.741 19.6086 31.6494 19.345 31.4824 19.1306C31.3154 18.9161 31.0823 18.7627 30.8192 18.6943V17.8192C30.8192 17.6611 30.8732 17.5078 30.9722 17.3847C31.0713 17.2615 31.2094 17.1758 31.3637 17.1418L34.1542 16.5325L34.1445 36.7108C34.1445 38.5646 32.4203 39.673 30.7544 39.673C29.0772 39.6727 27.7179 38.3128 27.7182 36.6357C27.7185 35.0357 28.9601 33.7105 30.5567 33.6059C31.5868 33.6647 32.4286 34.4493 32.5596 35.4727C32.7091 36.3969 32.0812 37.2672 31.157 37.4167L31.1531 37.4173C30.454 37.5205 29.801 37.0448 29.6849 36.3478C29.607 35.8227 29.9648 35.3322 30.4887 35.2459C30.5739 35.2317 30.6501 35.1845 30.7007 35.1145C30.7513 35.0446 30.7723 34.9574 30.7591 34.8721C30.7458 34.7867 30.6995 34.71 30.63 34.6586C30.5606 34.6073 30.4737 34.5854 30.3882 34.5977C29.5123 34.7404 28.9142 35.5611 29.0464 36.4385C29.2039 37.3698 30.0076 38.0534 30.9521 38.059C31.053 38.0595 31.1539 38.052 31.2535 38.0363C32.5242 37.8322 33.3924 36.6413 33.1981 35.369C33.0206 34.0222 31.898 32.9996 30.5405 32.948H4.83966V1.34204H34.1445V6.94567H22.8627C22.7767 6.94567 22.6943 6.97982 22.6335 7.0406C22.5727 7.10138 22.5386 7.18381 22.5386 7.26977V9.75559H22.0038C21.9179 9.75559 21.8354 9.78973 21.7746 9.85051C21.7139 9.91129 21.6797 9.99373 21.6797 10.0797C21.6797 10.1656 21.7139 10.2481 21.7746 10.3089C21.8354 10.3696 21.9179 10.4038 22.0038 10.4038H22.5386V12.8928C22.5386 12.9788 22.5727 13.0612 22.6335 13.122C22.6943 13.1828 22.7767 13.2169 22.8627 13.2169H24.9563V13.2882C24.9563 14.1492 25.6543 14.8471 26.5152 14.8471C27.3762 14.8471 28.0741 14.1492 28.0741 13.2882C28.0758 13.2645 28.0758 13.2407 28.0741 13.2169H34.1542V15.868ZM30.5373 28.8707C30.4527 28.877 30.3677 28.865 30.2882 28.8354C30.2087 28.8059 30.1365 28.7595 30.0765 28.6996C30.0165 28.6396 29.9702 28.5673 29.9406 28.4878C29.9111 28.4083 29.8991 28.3233 29.9054 28.2387V19.8803C29.9054 19.7247 29.9672 19.5755 30.0772 19.4655C30.1872 19.3555 30.3364 19.2937 30.492 19.2937H30.4952C30.6508 19.2937 30.8 19.3555 30.91 19.4655C31.02 19.5755 31.0818 19.7247 31.0818 19.8803V28.2387C31.0934 28.3948 31.0426 28.549 30.9404 28.6675C30.8383 28.786 30.6933 28.8591 30.5373 28.8707ZM25.5883 13.2882C25.594 13.1968 25.6148 13.1071 25.6499 13.0225C25.8755 12.5027 26.1593 12.0102 26.4958 11.5543C26.8317 12.0117 27.1155 12.5052 27.3417 13.0257C27.3826 13.1083 27.41 13.1969 27.4227 13.2882H27.4097C27.4097 13.7912 27.002 14.199 26.499 14.199C25.996 14.199 25.5883 13.7912 25.5883 13.2882ZM27.8732 12.5687C27.5675 11.9369 27.1972 11.3384 26.768 10.783C26.7377 10.7439 26.6989 10.7123 26.6545 10.6906C26.6102 10.6689 26.5614 10.6576 26.512 10.6576C26.4626 10.6576 26.4138 10.6689 26.3695 10.6906C26.3251 10.7123 26.2863 10.7439 26.256 10.783C25.8263 11.334 25.4548 11.9282 25.1476 12.5558H23.203V7.59386H37.7873L37.7808 12.5687H27.8732ZM39.8518 14.2443C39.8507 14.3518 39.8133 14.4558 39.7457 14.5394C39.678 14.6229 39.584 14.6811 39.4791 14.7045L34.8024 15.7254V13.2169H38.1147C38.2006 13.2169 38.2831 13.1828 38.3438 13.122C38.4046 13.0612 38.4388 12.9788 38.4388 12.8928V10.4038H39.3786C39.5039 10.4046 39.6237 10.4548 39.7123 10.5433C39.8008 10.6319 39.851 10.7517 39.8518 10.877V14.2443Z" fill="black"/>
<path d="M8.2978 5.21503C8.21184 5.21503 8.12941 5.24918 8.06863 5.30996C8.00785 5.37074 7.9737 5.45317 7.9737 5.53913V5.86323C7.9737 5.94918 8.00785 6.03162 8.06863 6.0924C8.12941 6.15318 8.21184 6.18732 8.2978 6.18732C8.38375 6.18732 8.46619 6.15318 8.52697 6.0924C8.58775 6.03162 8.62189 5.94918 8.62189 5.86323V5.53913C8.62189 5.45317 8.58775 5.37074 8.52697 5.30996C8.46619 5.24918 8.38375 5.21503 8.2978 5.21503ZM8.2978 3.20239C8.21184 3.20239 8.12941 3.23654 8.06863 3.29732C8.00785 3.3581 7.9737 3.44053 7.9737 3.52649V3.85059C7.9737 3.93654 8.00785 4.01898 8.06863 4.07976C8.12941 4.14054 8.21184 4.17468 8.2978 4.17468C8.38375 4.17468 8.46619 4.14054 8.52697 4.07976C8.58775 4.01898 8.62189 3.93654 8.62189 3.85059V3.52649C8.62189 3.44053 8.58775 3.3581 8.52697 3.29732C8.46619 3.23654 8.38375 3.20239 8.2978 3.20239ZM7.4519 4.37238H7.12781C7.04185 4.37238 6.95942 4.40653 6.89864 4.46731C6.83786 4.52809 6.80371 4.61052 6.80371 4.69648C6.80371 4.78243 6.83786 4.86487 6.89864 4.92565C6.95942 4.98643 7.04185 5.02057 7.12781 5.02057H7.4519C7.53786 5.02057 7.62029 4.98643 7.68107 4.92565C7.74185 4.86487 7.776 4.78243 7.776 4.69648C7.776 4.61052 7.74185 4.52809 7.68107 4.46731C7.62029 4.40653 7.53786 4.37238 7.4519 4.37238ZM9.46778 4.37238H9.14369C9.05773 4.37238 8.9753 4.40653 8.91452 4.46731C8.85374 4.52809 8.81959 4.61052 8.81959 4.69648C8.81959 4.78243 8.85374 4.86487 8.91452 4.92565C8.9753 4.98643 9.05773 5.02057 9.14369 5.02057H9.46778C9.55374 5.02057 9.63618 4.98643 9.69696 4.92565C9.75774 4.86487 9.79188 4.78243 9.79188 4.69648C9.79188 4.61052 9.75774 4.52809 9.69696 4.46731C9.63618 4.40653 9.55374 4.37238 9.46778 4.37238ZM15.7164 5.21503C15.6304 5.21503 15.548 5.24918 15.4872 5.30996C15.4264 5.37074 15.3923 5.45317 15.3923 5.53913V5.86323C15.3923 5.94918 15.4264 6.03162 15.4872 6.0924C15.548 6.15318 15.6304 6.18732 15.7164 6.18732C15.8023 6.18732 15.8848 6.15318 15.9455 6.0924C16.0063 6.03162 16.0405 5.94918 16.0405 5.86323V5.53913C16.0405 5.45317 16.0063 5.37074 15.9455 5.30996C15.8848 5.24918 15.8023 5.21503 15.7164 5.21503ZM15.7164 3.20239C15.6304 3.20239 15.548 3.23654 15.4872 3.29732C15.4264 3.3581 15.3923 3.44053 15.3923 3.52649V3.85059C15.3923 3.93654 15.4264 4.01898 15.4872 4.07976C15.548 4.14054 15.6304 4.17468 15.7164 4.17468C15.8023 4.17468 15.8848 4.14054 15.9455 4.07976C16.0063 4.01898 16.0405 3.93654 16.0405 3.85059V3.52649C16.0405 3.44053 16.0063 3.3581 15.9455 3.29732C15.8848 3.23654 15.8023 3.20239 15.7164 3.20239ZM14.8737 4.37238H14.5496C14.4637 4.37238 14.3812 4.40653 14.3204 4.46731C14.2597 4.52809 14.2255 4.61052 14.2255 4.69648C14.2255 4.78243 14.2597 4.86487 14.3204 4.92565C14.3812 4.98643 14.4637 5.02057 14.5496 5.02057H14.8737C14.9597 5.02057 15.0421 4.98643 15.1029 4.92565C15.1637 4.86487 15.1978 4.78243 15.1978 4.69648C15.1978 4.61052 15.1637 4.52809 15.1029 4.46731C15.0421 4.40653 14.9597 4.37238 14.8737 4.37238ZM16.8831 4.37238H16.559C16.4731 4.37238 16.3906 4.40653 16.3298 4.46731C16.2691 4.52809 16.2349 4.61052 16.2349 4.69648C16.2349 4.78243 16.2691 4.86487 16.3298 4.92565C16.3906 4.98643 16.4731 5.02057 16.559 5.02057H16.8831C16.9691 5.02057 17.0515 4.98643 17.1123 4.92565C17.1731 4.86487 17.2072 4.78243 17.2072 4.69648C17.2072 4.61052 17.1731 4.52809 17.1123 4.46731C17.0515 4.40653 16.9691 4.37238 16.8831 4.37238ZM23.1349 5.21827C23.049 5.21827 22.9665 5.25242 22.9058 5.3132C22.845 5.37398 22.8108 5.45641 22.8108 5.54237V5.86647C22.8108 5.95242 22.845 6.03486 22.9058 6.09564C22.9665 6.15642 23.049 6.19056 23.1349 6.19056C23.2209 6.19056 23.3033 6.15642 23.3641 6.09564C23.4249 6.03486 23.459 5.95242 23.459 5.86647V5.54237C23.459 5.45641 23.4249 5.37398 23.3641 5.3132C23.3033 5.25242 23.2209 5.21827 23.1349 5.21827ZM23.1349 3.20563C23.049 3.20563 22.9665 3.23978 22.9058 3.30056C22.845 3.36134 22.8108 3.44377 22.8108 3.52973V3.85383C22.8108 3.93978 22.845 4.02222 22.9058 4.083C22.9665 4.14378 23.049 4.17792 23.1349 4.17792C23.2209 4.17792 23.3033 4.14378 23.3641 4.083C23.4249 4.02222 23.459 3.93978 23.459 3.85383V3.52973C23.459 3.44377 23.4249 3.36134 23.3641 3.30056C23.3033 3.23978 23.2209 3.20563 23.1349 3.20563ZM22.289 4.37238H21.9649C21.879 4.37238 21.7966 4.40653 21.7358 4.46731C21.675 4.52809 21.6409 4.61052 21.6409 4.69648C21.6409 4.78243 21.675 4.86487 21.7358 4.92565C21.7966 4.98643 21.879 5.02057 21.9649 5.02057H22.289C22.375 5.02057 22.4574 4.98643 22.5182 4.92565C22.579 4.86487 22.6131 4.78243 22.6131 4.69648C22.6131 4.61052 22.579 4.52809 22.5182 4.46731C22.4574 4.40653 22.375 4.37238 22.289 4.37238ZM24.3017 4.37238H23.9776C23.8916 4.37238 23.8092 4.40653 23.7484 4.46731C23.6876 4.52809 23.6535 4.61052 23.6535 4.69648C23.6535 4.78243 23.6876 4.86487 23.7484 4.92565C23.8092 4.98643 23.8916 5.02057 23.9776 5.02057H24.3017C24.3876 5.02057 24.4701 4.98643 24.5309 4.92565C24.5916 4.86487 24.6258 4.78243 24.6258 4.69648C24.6258 4.61052 24.5916 4.52809 24.5309 4.46731C24.4701 4.40653 24.3876 4.37238 24.3017 4.37238ZM30.5567 5.21827C30.4708 5.21827 30.3884 5.25242 30.3276 5.3132C30.2668 5.37398 30.2326 5.45641 30.2326 5.54237V5.86647C30.2326 5.95242 30.2668 6.03486 30.3276 6.09564C30.3884 6.15642 30.4708 6.19056 30.5567 6.19056C30.6427 6.19056 30.7251 6.15642 30.7859 6.09564C30.8467 6.03486 30.8808 5.95242 30.8808 5.86647V5.54237C30.8808 5.45641 30.8467 5.37398 30.7859 5.3132C30.7251 5.25242 30.6427 5.21827 30.5567 5.21827ZM30.5567 3.20563C30.4708 3.20563 30.3884 3.23978 30.3276 3.30056C30.2668 3.36134 30.2326 3.44377 30.2326 3.52973V3.85383C30.2326 3.93978 30.2668 4.02222 30.3276 4.083C30.3884 4.14378 30.4708 4.17792 30.5567 4.17792C30.6427 4.17792 30.7251 4.14378 30.7859 4.083C30.8467 4.02222 30.8808 3.93978 30.8808 3.85383V3.52973C30.8808 3.44377 30.8467 3.36134 30.7859 3.30056C30.7251 3.23978 30.6427 3.20563 30.5567 3.20563ZM29.7076 4.37238H29.3835C29.2976 4.37238 29.2151 4.40653 29.1543 4.46731C29.0936 4.52809 29.0594 4.61052 29.0594 4.69648C29.0594 4.78243 29.0936 4.86487 29.1543 4.92565C29.2151 4.98643 29.2976 5.02057 29.3835 5.02057H29.7076C29.7936 5.02057 29.876 4.98643 29.9368 4.92565C29.9976 4.86487 30.0317 4.78243 30.0317 4.69648C30.0317 4.61052 29.9976 4.52809 29.9368 4.46731C29.876 4.40653 29.7936 4.37238 29.7076 4.37238ZM31.7235 4.37238H31.3994C31.3134 4.37238 31.231 4.40653 31.1702 4.46731C31.1094 4.52809 31.0753 4.61052 31.0753 4.69648C31.0753 4.78243 31.1094 4.86487 31.1702 4.92565C31.231 4.98643 31.3134 5.02057 31.3994 5.02057H31.7235C31.8095 5.02057 31.8919 4.98643 31.9527 4.92565C32.0134 4.86487 32.0476 4.78243 32.0476 4.69648C32.0476 4.61052 32.0134 4.52809 31.9527 4.46731C31.8919 4.40653 31.8095 4.37238 31.7235 4.37238ZM13.2403 9.54172L13.0102 9.31161C12.9494 9.25125 12.8673 9.21737 12.7817 9.21737C12.6961 9.21737 12.6139 9.25125 12.5532 9.31161C12.523 9.34159 12.4989 9.37722 12.4825 9.41647C12.466 9.45573 12.4575 9.49784 12.4573 9.5404C12.4571 9.58297 12.4654 9.62515 12.4815 9.66453C12.4976 9.70392 12.5213 9.73975 12.5513 9.76997L12.5532 9.77183L12.7833 10.0019C12.8447 10.0606 12.9267 10.0928 13.0116 10.0917C13.0965 10.0906 13.1776 10.0562 13.2375 9.99594C13.2973 9.93567 13.3311 9.85433 13.3317 9.7694C13.3322 9.68447 13.2994 9.60272 13.2403 9.54172ZM11.8304 8.11894L11.6003 7.88883C11.5704 7.85861 11.5347 7.83459 11.4955 7.81814C11.4562 7.80169 11.4141 7.79314 11.3715 7.79296C11.329 7.79279 11.2868 7.801 11.2474 7.81713C11.208 7.83326 11.1722 7.85699 11.142 7.88697L11.1401 7.88883C11.0798 7.94955 11.0459 8.0317 11.0459 8.11732C11.0459 8.20294 11.0798 8.28508 11.1401 8.34581L11.3735 8.57591C11.4333 8.63698 11.5149 8.67193 11.6003 8.67314C11.6647 8.67352 11.7277 8.65471 11.7814 8.61913C11.835 8.58354 11.8769 8.53278 11.9015 8.47333C11.9262 8.41388 11.9327 8.34842 11.92 8.2853C11.9073 8.22219 11.8762 8.16427 11.8304 8.11894ZM11.8323 9.31348L11.8304 9.31161C11.7697 9.25125 11.6876 9.21737 11.602 9.21737C11.5163 9.21737 11.4342 9.25125 11.3735 9.31161L11.1401 9.54172C11.1099 9.5717 11.0859 9.60733 11.0694 9.64658C11.053 9.68584 11.0444 9.72795 11.0443 9.77051C11.0441 9.81308 11.0523 9.85526 11.0684 9.89464C11.0846 9.93403 11.1083 9.96986 11.1383 10.0001L11.1401 10.0019C11.1701 10.0322 11.2057 10.0562 11.245 10.0726C11.2842 10.0891 11.3264 10.0976 11.3689 10.0978C11.4115 10.098 11.4537 10.0898 11.493 10.0736C11.5324 10.0575 11.5683 10.0338 11.5985 10.0038L11.6003 10.0019L11.8304 9.77183C11.8607 9.74186 11.8847 9.70623 11.9011 9.66697C11.9176 9.62771 11.9261 9.5856 11.9263 9.54304C11.9265 9.50048 11.9183 9.4583 11.9021 9.41891C11.886 9.37952 11.8623 9.34369 11.8323 9.31348ZM13.2757 7.88883C13.2453 7.85331 13.2075 7.82479 13.165 7.80524C13.1225 7.78568 13.0763 7.77556 13.0295 7.77556C12.9828 7.77556 12.9365 7.78568 12.894 7.80524C12.8516 7.82479 12.8138 7.85331 12.7834 7.88883L12.5533 8.11894C12.4929 8.17966 12.459 8.2618 12.459 8.34743C12.459 8.43305 12.4929 8.51519 12.5533 8.57591C12.6131 8.63698 12.6946 8.67193 12.7801 8.67314C12.823 8.67297 12.8654 8.66428 12.9049 8.64759C12.9444 8.6309 12.9802 8.60654 13.0102 8.57591L13.2403 8.34581C13.3056 8.28989 13.346 8.21033 13.3527 8.12463C13.3593 8.03893 13.3316 7.95411 13.2757 7.88883ZM20.607 9.54172L20.3769 9.31161C20.3155 9.25236 20.2333 9.21959 20.148 9.22035C20.0626 9.22111 19.981 9.25533 19.9207 9.31566C19.8604 9.37599 19.8261 9.4576 19.8254 9.54292C19.8246 9.62824 19.8574 9.71044 19.9167 9.77183L20.15 10.0019C20.1802 10.0319 20.2161 10.0557 20.2555 10.0719C20.2949 10.088 20.3371 10.0963 20.3796 10.0961C20.4222 10.096 20.4644 10.0874 20.5036 10.071C20.5429 10.0545 20.5786 10.0305 20.6086 10.0003C20.6386 9.9701 20.6624 9.93427 20.6785 9.89487C20.6947 9.85547 20.7029 9.81327 20.7028 9.77068C20.7026 9.7281 20.6941 9.68596 20.6776 9.64668C20.6612 9.60739 20.6372 9.57173 20.607 9.54172ZM19.1842 8.11894L18.9508 7.88883C18.9231 7.85085 18.8874 7.81937 18.8462 7.79658C18.805 7.7738 18.7594 7.76025 18.7124 7.75689C18.6655 7.75352 18.6184 7.76042 18.5744 7.77709C18.5304 7.79377 18.4905 7.81983 18.4576 7.85346C18.4247 7.88709 18.3995 7.92748 18.3838 7.97183C18.3681 8.01619 18.3622 8.06343 18.3666 8.11028C18.3709 8.15713 18.3855 8.20247 18.4091 8.24314C18.4328 8.28382 18.465 8.31885 18.5036 8.34581L18.724 8.57591C18.785 8.63501 18.8667 8.66783 18.9517 8.6673C19.0366 8.66678 19.1179 8.63296 19.1782 8.57312C19.2385 8.51328 19.2729 8.43218 19.274 8.34726C19.2751 8.26233 19.2429 8.18035 19.1842 8.11894ZM19.1842 9.31161C19.1232 9.2506 19.0404 9.21632 18.9541 9.21632C18.8678 9.21632 18.785 9.2506 18.724 9.31161L18.4939 9.54172C18.4348 9.60272 18.402 9.68447 18.4025 9.7694C18.403 9.85433 18.4368 9.93567 18.4967 9.99594C18.5565 10.0562 18.6376 10.0906 18.7225 10.0917C18.8075 10.0928 18.8894 10.0606 18.9508 10.0019L19.1842 9.77183C19.2144 9.74162 19.2384 9.70575 19.2548 9.66626C19.2711 9.62678 19.2796 9.58446 19.2796 9.54172C19.2796 9.49898 19.2711 9.45666 19.2548 9.41718C19.2384 9.3777 19.2144 9.34182 19.1842 9.31161ZM20.6424 7.88883C20.612 7.85331 20.5742 7.82479 20.5317 7.80524C20.4892 7.78568 20.443 7.77556 20.3962 7.77556C20.3495 7.77556 20.3032 7.78568 20.2608 7.80524C20.2183 7.82479 20.1805 7.85331 20.1501 7.88883L19.9167 8.11894C19.871 8.16427 19.8399 8.22219 19.8272 8.2853C19.8145 8.34842 19.821 8.41388 19.8456 8.47333C19.8703 8.53278 19.9122 8.58354 19.9658 8.61913C20.0194 8.65471 20.0825 8.67352 20.1468 8.67314C20.1897 8.67297 20.2321 8.66428 20.2716 8.64759C20.3111 8.6309 20.3469 8.60654 20.377 8.57591L20.6071 8.34581C20.6723 8.28989 20.7127 8.21033 20.7194 8.12463C20.726 8.03893 20.6983 7.95411 20.6424 7.88883ZM8.2978 13.6999C8.21184 13.6999 8.12941 13.734 8.06863 13.7948C8.00785 13.8556 7.9737 13.938 7.9737 14.024V14.3481C7.9737 14.434 8.00785 14.5165 8.06863 14.5772C8.12941 14.638 8.21184 14.6722 8.2978 14.6722C8.38375 14.6722 8.46619 14.638 8.52697 14.5772C8.58775 14.5165 8.62189 14.434 8.62189 14.3481V14.024C8.62189 13.938 8.58775 13.8556 8.52697 13.7948C8.46619 13.734 8.38375 13.6999 8.2978 13.6999ZM8.2978 11.7002C8.21184 11.7002 8.12941 11.7344 8.06863 11.7951C8.00785 11.8559 7.9737 11.9383 7.9737 12.0243V12.3484C7.9737 12.4344 8.00785 12.5168 8.06863 12.5776C8.12941 12.6383 8.21184 12.6725 8.2978 12.6725C8.38375 12.6725 8.46619 12.6383 8.52697 12.5776C8.58775 12.5168 8.62189 12.4344 8.62189 12.3484V12.0243C8.62189 11.9383 8.58775 11.8559 8.52697 11.7951C8.46619 11.7344 8.38375 11.7002 8.2978 11.7002ZM7.4519 12.8702H7.12781C7.04185 12.8702 6.95942 12.9043 6.89864 12.9651C6.83786 13.0259 6.80371 13.1083 6.80371 13.1943C6.80371 13.2802 6.83786 13.3627 6.89864 13.4235C6.95942 13.4842 7.04185 13.5184 7.12781 13.5184H7.4519C7.53786 13.5184 7.62029 13.4842 7.68107 13.4235C7.74185 13.3627 7.776 13.2802 7.776 13.1943C7.776 13.1083 7.74185 13.0259 7.68107 12.9651C7.62029 12.9043 7.53786 12.8702 7.4519 12.8702ZM9.46778 12.8702H9.14369C9.05773 12.8702 8.9753 12.9043 8.91452 12.9651C8.85374 13.0259 8.81959 13.1083 8.81959 13.1943C8.81959 13.2802 8.85374 13.3627 8.91452 13.4235C8.9753 13.4842 9.05773 13.5184 9.14369 13.5184H9.46778C9.55374 13.5184 9.63618 13.4842 9.69696 13.4235C9.75774 13.3627 9.79188 13.2802 9.79188 13.1943C9.79188 13.1083 9.75774 13.0259 9.69696 12.9651C9.63618 12.9043 9.55374 12.8702 9.46778 12.8702ZM15.7164 13.6999C15.6304 13.6999 15.548 13.734 15.4872 13.7948C15.4264 13.8556 15.3923 13.938 15.3923 14.024V14.3481C15.3923 14.434 15.4264 14.5165 15.4872 14.5772C15.548 14.638 15.6304 14.6722 15.7164 14.6722C15.8023 14.6722 15.8848 14.638 15.9455 14.5772C16.0063 14.5165 16.0405 14.434 16.0405 14.3481V14.024C16.0405 13.938 16.0063 13.8556 15.9455 13.7948C15.8848 13.734 15.8023 13.6999 15.7164 13.6999ZM15.7164 11.7002C15.6304 11.7002 15.548 11.7344 15.4872 11.7951C15.4264 11.8559 15.3923 11.9383 15.3923 12.0243V12.3484C15.3923 12.4344 15.4264 12.5168 15.4872 12.5776C15.548 12.6383 15.6304 12.6725 15.7164 12.6725C15.8023 12.6725 15.8848 12.6383 15.9455 12.5776C16.0063 12.5168 16.0405 12.4344 16.0405 12.3484V12.0243C16.0405 11.9383 16.0063 11.8559 15.9455 11.7951C15.8848 11.7344 15.8023 11.7002 15.7164 11.7002ZM14.8737 12.8702H14.5496C14.4637 12.8702 14.3812 12.9043 14.3204 12.9651C14.2597 13.0259 14.2255 13.1083 14.2255 13.1943C14.2255 13.2802 14.2597 13.3627 14.3204 13.4235C14.3812 13.4842 14.4637 13.5184 14.5496 13.5184H14.8737C14.9597 13.5184 15.0421 13.4842 15.1029 13.4235C15.1637 13.3627 15.1978 13.2802 15.1978 13.1943C15.1978 13.1083 15.1637 13.0259 15.1029 12.9651C15.0421 12.9043 14.9597 12.8702 14.8737 12.8702ZM16.8831 12.8702H16.559C16.4731 12.8702 16.3906 12.9043 16.3298 12.9651C16.2691 13.0259 16.2349 13.1083 16.2349 13.1943C16.2349 13.2802 16.2691 13.3627 16.3298 13.4235C16.3906 13.4842 16.4731 13.5184 16.559 13.5184H16.8831C16.9691 13.5184 17.0515 13.4842 17.1123 13.4235C17.1731 13.3627 17.2072 13.2802 17.2072 13.1943C17.2072 13.1083 17.1731 13.0259 17.1123 12.9651C17.0515 12.9043 16.9691 12.8702 16.8831 12.8702ZM13.2403 18.0395L13.0102 17.8094C12.9494 17.7491 12.8673 17.7152 12.7817 17.7152C12.6961 17.7152 12.6139 17.7491 12.5532 17.8094C12.523 17.8394 12.4989 17.875 12.4825 17.9143C12.466 17.9535 12.4575 17.9957 12.4573 18.0382C12.4571 18.0808 12.4654 18.123 12.4815 18.1623C12.4976 18.2017 12.5213 18.2376 12.5513 18.2678L12.5532 18.2696L12.7833 18.4998C12.8447 18.5584 12.9267 18.5907 13.0116 18.5895C13.0965 18.5884 13.1776 18.554 13.2375 18.4937C13.2973 18.4335 13.3311 18.3521 13.3317 18.2672C13.3322 18.1823 13.2994 18.1005 13.2403 18.0395ZM11.8175 16.6168L11.5874 16.3866C11.5574 16.3564 11.5218 16.3324 11.4825 16.316C11.4433 16.2995 11.4011 16.291 11.3586 16.2908C11.316 16.2906 11.2738 16.2988 11.2345 16.3149C11.1951 16.3311 11.1592 16.3548 11.129 16.3848L11.1272 16.3866C11.0668 16.4474 11.0329 16.5295 11.0329 16.6151C11.0329 16.7008 11.0668 16.7829 11.1272 16.8436L11.3735 17.0737C11.4333 17.1348 11.5149 17.1697 11.6003 17.171C11.6636 17.1689 11.7249 17.1483 11.7766 17.1117C11.8283 17.0752 11.8682 17.0243 11.8913 16.9653C11.9144 16.9064 11.9197 16.8419 11.9066 16.78C11.8935 16.718 11.8625 16.6613 11.8175 16.6168ZM11.8323 17.8113L11.8304 17.8094C11.7697 17.7491 11.6876 17.7152 11.602 17.7152C11.5163 17.7152 11.4342 17.7491 11.3735 17.8094L11.1401 18.0395C11.1099 18.0695 11.0859 18.1051 11.0694 18.1444C11.053 18.1837 11.0444 18.2258 11.0443 18.2683C11.0441 18.3109 11.0523 18.3531 11.0684 18.3925C11.0846 18.4318 11.1083 18.4677 11.1383 18.4979L11.1401 18.4998C11.1701 18.53 11.2057 18.554 11.245 18.5704C11.2842 18.5869 11.3264 18.5954 11.3689 18.5956C11.4115 18.5958 11.4537 18.5876 11.493 18.5714C11.5324 18.5553 11.5683 18.5316 11.5985 18.5016L11.6003 18.4998L11.8304 18.2696C11.8607 18.2397 11.8847 18.204 11.9011 18.1648C11.9176 18.1255 11.9261 18.0834 11.9263 18.0409C11.9265 17.9983 11.9183 17.9561 11.9021 17.9167C11.886 17.8773 11.8623 17.8415 11.8323 17.8113ZM13.2049 16.3866C13.1462 16.3364 13.0714 16.3088 12.9941 16.3088C12.9168 16.3088 12.842 16.3364 12.7833 16.3866L12.5532 16.6168C12.4928 16.6775 12.4589 16.7596 12.4589 16.8452C12.4589 16.9309 12.4928 17.013 12.5532 17.0737C12.613 17.1348 12.6946 17.1697 12.7801 17.171C12.8229 17.1708 12.8654 17.1621 12.9049 17.1454C12.9443 17.1287 12.9801 17.1044 13.0102 17.0737L13.2403 16.8436C13.2962 16.7783 13.3239 16.6935 13.3172 16.6078C13.3106 16.5221 13.2702 16.4426 13.2049 16.3866ZM20.607 18.0395L20.3769 17.8094C20.3155 17.7502 20.2333 17.7174 20.148 17.7182C20.0626 17.7189 19.981 17.7531 19.9207 17.8135C19.8604 17.8738 19.8261 17.9554 19.8254 18.0407C19.8246 18.126 19.8574 18.2083 19.9167 18.2696L20.15 18.4998C20.2114 18.5584 20.2934 18.5907 20.3783 18.5895C20.4632 18.5884 20.5443 18.554 20.6042 18.4937C20.664 18.4335 20.6978 18.3521 20.6984 18.2672C20.6989 18.1823 20.6661 18.1005 20.607 18.0395ZM19.1842 16.6168L18.9508 16.3866C18.8879 16.3427 18.8115 16.3225 18.7351 16.3296C18.6587 16.3367 18.5873 16.3708 18.5336 16.4256C18.4799 16.4804 18.4474 16.5526 18.4419 16.6291C18.4364 16.7057 18.4583 16.7817 18.5036 16.8436L18.724 17.0737C18.785 17.1328 18.8667 17.1656 18.9517 17.1651C19.0366 17.1646 19.1179 17.1308 19.1782 17.0709C19.2385 17.0111 19.2729 16.93 19.274 16.8451C19.2751 16.7601 19.2429 16.6782 19.1842 16.6168ZM19.1842 17.8094C19.1232 17.7484 19.0404 17.7141 18.9541 17.7141C18.8678 17.7141 18.785 17.7484 18.724 17.8094L18.4939 18.0395C18.4348 18.1005 18.402 18.1823 18.4025 18.2672C18.403 18.3521 18.4368 18.4335 18.4967 18.4937C18.5565 18.554 18.6376 18.5884 18.7225 18.5895C18.8075 18.5907 18.8894 18.5584 18.9508 18.4998L19.1842 18.2696C19.2144 18.2394 19.2384 18.2036 19.2548 18.1641C19.2711 18.1246 19.2796 18.0823 19.2796 18.0395C19.2796 17.9968 19.2711 17.9545 19.2548 17.915C19.2384 17.8755 19.2144 17.8396 19.1842 17.8094ZM20.5717 16.3866C20.5129 16.3364 20.4381 16.3088 20.3608 16.3088C20.2835 16.3088 20.2087 16.3364 20.15 16.3866L19.9167 16.6168C19.871 16.6621 19.8398 16.72 19.8271 16.7831C19.8145 16.8462 19.8209 16.9117 19.8456 16.9711C19.8702 17.0306 19.9121 17.0814 19.9657 17.1169C20.0194 17.1525 20.0824 17.1713 20.1468 17.171C20.1896 17.1708 20.2321 17.1621 20.2716 17.1454C20.3111 17.1287 20.3469 17.1044 20.3769 17.0737L20.607 16.8436C20.6629 16.7783 20.6906 16.6935 20.684 16.6078C20.6773 16.5221 20.6369 16.4426 20.5717 16.3866ZM27.9756 18.0414L27.9737 18.0395L27.7404 17.8094C27.6796 17.7491 27.5975 17.7152 27.5119 17.7152C27.4262 17.7152 27.3441 17.7491 27.2834 17.8094C27.2532 17.8394 27.2291 17.875 27.2127 17.9143C27.1962 17.9535 27.1877 17.9957 27.1875 18.0382C27.1873 18.0808 27.1955 18.123 27.2117 18.1623C27.2278 18.2017 27.2515 18.2376 27.2815 18.2678L27.2834 18.2696L27.5135 18.4998C27.5435 18.53 27.5791 18.554 27.6183 18.5704C27.6576 18.5869 27.6997 18.5954 27.7423 18.5956C27.7848 18.5958 27.827 18.5876 27.8664 18.5714C27.9058 18.5553 27.9416 18.5316 27.9718 18.5016L27.9737 18.4998C28.0039 18.4698 28.0279 18.4341 28.0444 18.3949C28.0608 18.3556 28.0694 18.3135 28.0696 18.271C28.0697 18.2284 28.0615 18.1862 28.0454 18.1468C28.0293 18.1074 28.0055 18.0716 27.9756 18.0414ZM26.5477 16.6168L26.3176 16.3866C26.2556 16.3335 26.1758 16.3058 26.0942 16.309C26.0127 16.3121 25.9353 16.3459 25.8776 16.4036C25.8199 16.4614 25.7861 16.5387 25.7829 16.6203C25.7797 16.7019 25.8075 16.7816 25.8606 16.8436L26.0907 17.0737C26.1207 17.1044 26.1565 17.1287 26.196 17.1454C26.2355 17.1621 26.2779 17.1708 26.3208 17.171C26.4063 17.1697 26.4878 17.1348 26.5477 17.0737C26.608 17.013 26.6419 16.9309 26.6419 16.8452C26.6419 16.7596 26.608 16.6775 26.5477 16.6168ZM26.5496 17.8113L26.5478 17.8094C26.487 17.7491 26.4049 17.7152 26.3193 17.7152C26.2336 17.7152 26.1515 17.7491 26.0908 17.8094L25.8607 18.0395C25.8016 18.1005 25.7688 18.1823 25.7693 18.2672C25.7698 18.3521 25.8036 18.4335 25.8635 18.4937C25.9233 18.554 26.0044 18.5884 26.0893 18.5895C26.1743 18.5907 26.2562 18.5584 26.3176 18.4998L26.5478 18.2696C26.6088 18.2091 26.6432 18.1268 26.6436 18.0409C26.6439 17.9549 26.6101 17.8723 26.5496 17.8113ZM27.9737 16.3866C27.9437 16.3564 27.9081 16.3324 27.8688 16.316C27.8296 16.2995 27.7875 16.291 27.7449 16.2908C27.7023 16.2906 27.6602 16.2988 27.6208 16.3149C27.5814 16.3311 27.5456 16.3548 27.5153 16.3848L27.5135 16.3866L27.2834 16.6168C27.2377 16.6621 27.2065 16.72 27.1938 16.7831C27.1812 16.8462 27.1876 16.9117 27.2123 16.9711C27.237 17.0306 27.2788 17.0814 27.3324 17.1169C27.3861 17.1525 27.4491 17.1713 27.5135 17.171C27.599 17.1697 27.6805 17.1348 27.7404 17.0737L27.9737 16.8436C28.0341 16.7829 28.0679 16.7008 28.0679 16.6151C28.0679 16.5295 28.0341 16.4474 27.9737 16.3866ZM8.2978 22.2107C8.21184 22.2107 8.12941 22.2448 8.06863 22.3056C8.00785 22.3664 7.9737 22.4488 7.9737 22.5348V22.8589C7.9737 22.9448 8.00785 23.0272 8.06863 23.088C8.12941 23.1488 8.21184 23.1829 8.2978 23.1829C8.38375 23.1829 8.46619 23.1488 8.52697 23.088C8.58775 23.0272 8.62189 22.9448 8.62189 22.8589V22.5348C8.62189 22.4488 8.58775 22.3664 8.52697 22.3056C8.46619 22.2448 8.38375 22.2107 8.2978 22.2107ZM8.2978 20.198C8.21184 20.198 8.12941 20.2322 8.06863 20.2929C8.00785 20.3537 7.9737 20.4362 7.9737 20.5221V20.8462C7.9737 20.9322 8.00785 21.0146 8.06863 21.0754C8.12941 21.1362 8.21184 21.1703 8.2978 21.1703C8.38375 21.1703 8.46619 21.1362 8.52697 21.0754C8.58775 21.0146 8.62189 20.9322 8.62189 20.8462V20.5221C8.62189 20.4362 8.58775 20.3537 8.52697 20.2929C8.46619 20.2322 8.38375 20.198 8.2978 20.198ZM7.4519 21.368H7.12781C7.04185 21.368 6.95942 21.4022 6.89864 21.4629C6.83786 21.5237 6.80371 21.6061 6.80371 21.6921C6.80371 21.7781 6.83786 21.8605 6.89864 21.9213C6.95942 21.9821 7.04185 22.0162 7.12781 22.0162H7.4519C7.53786 22.0162 7.62029 21.9821 7.68107 21.9213C7.74185 21.8605 7.776 21.7781 7.776 21.6921C7.776 21.6061 7.74185 21.5237 7.68107 21.4629C7.62029 21.4022 7.53786 21.368 7.4519 21.368ZM9.46778 21.368H9.14369C9.05773 21.368 8.9753 21.4022 8.91452 21.4629C8.85374 21.5237 8.81959 21.6061 8.81959 21.6921C8.81959 21.7781 8.85374 21.8605 8.91452 21.9213C8.9753 21.9821 9.05773 22.0162 9.14369 22.0162H9.46778C9.55374 22.0162 9.63618 21.9821 9.69696 21.9213C9.75774 21.8605 9.79188 21.7781 9.79188 21.6921C9.79188 21.6061 9.75774 21.5237 9.69696 21.4629C9.63618 21.4022 9.55374 21.368 9.46778 21.368ZM15.7164 22.2107C15.6304 22.2107 15.548 22.2448 15.4872 22.3056C15.4264 22.3664 15.3923 22.4488 15.3923 22.5348V22.8589C15.3923 22.9448 15.4264 23.0272 15.4872 23.088C15.548 23.1488 15.6304 23.1829 15.7164 23.1829C15.8023 23.1829 15.8848 23.1488 15.9455 23.088C16.0063 23.0272 16.0405 22.9448 16.0405 22.8589V22.5348C16.0405 22.4488 16.0063 22.3664 15.9455 22.3056C15.8848 22.2448 15.8023 22.2107 15.7164 22.2107ZM15.7164 20.198C15.6304 20.198 15.548 20.2322 15.4872 20.2929C15.4264 20.3537 15.3923 20.4362 15.3923 20.5221V20.8462C15.3923 20.9322 15.4264 21.0146 15.4872 21.0754C15.548 21.1362 15.6304 21.1703 15.7164 21.1703C15.8023 21.1703 15.8848 21.1362 15.9455 21.0754C16.0063 21.0146 16.0405 20.9322 16.0405 20.8462V20.5221C16.0405 20.4362 16.0063 20.3537 15.9455 20.2929C15.8848 20.2322 15.8023 20.198 15.7164 20.198ZM14.8737 21.368H14.5496C14.4637 21.368 14.3812 21.4022 14.3204 21.4629C14.2597 21.5237 14.2255 21.6061 14.2255 21.6921C14.2255 21.7781 14.2597 21.8605 14.3204 21.9213C14.3812 21.9821 14.4637 22.0162 14.5496 22.0162H14.8737C14.9597 22.0162 15.0421 21.9821 15.1029 21.9213C15.1637 21.8605 15.1978 21.7781 15.1978 21.6921C15.1978 21.6061 15.1637 21.5237 15.1029 21.4629C15.0421 21.4022 14.9597 21.368 14.8737 21.368ZM16.8831 21.368H16.559C16.4731 21.368 16.3906 21.4022 16.3298 21.4629C16.2691 21.5237 16.2349 21.6061 16.2349 21.6921C16.2349 21.7781 16.2691 21.8605 16.3298 21.9213C16.3906 21.9821 16.4731 22.0162 16.559 22.0162H16.8831C16.9691 22.0162 17.0515 21.9821 17.1123 21.9213C17.1731 21.8605 17.2072 21.7781 17.2072 21.6921C17.2072 21.6061 17.1731 21.5237 17.1123 21.4629C17.0515 21.4022 16.9691 21.368 16.8831 21.368ZM23.1349 22.2107C23.049 22.2107 22.9665 22.2448 22.9058 22.3056C22.845 22.3664 22.8108 22.4488 22.8108 22.5348V22.8589C22.8108 22.9448 22.845 23.0272 22.9058 23.088C22.9665 23.1488 23.049 23.1829 23.1349 23.1829C23.2209 23.1829 23.3033 23.1488 23.3641 23.088C23.4249 23.0272 23.459 22.9448 23.459 22.8589V22.5348C23.459 22.4488 23.4249 22.3664 23.3641 22.3056C23.3033 22.2448 23.2209 22.2107 23.1349 22.2107ZM23.1349 20.198C23.049 20.198 22.9665 20.2322 22.9058 20.2929C22.845 20.3537 22.8108 20.4362 22.8108 20.5221V20.8462C22.8108 20.9322 22.845 21.0146 22.9058 21.0754C22.9665 21.1362 23.049 21.1703 23.1349 21.1703C23.2209 21.1703 23.3033 21.1362 23.3641 21.0754C23.4249 21.0146 23.459 20.9322 23.459 20.8462V20.5221C23.459 20.4362 23.4249 20.3537 23.3641 20.2929C23.3033 20.2322 23.2209 20.198 23.1349 20.198ZM22.2923 21.368H21.9682C21.8822 21.368 21.7998 21.4022 21.739 21.4629C21.6782 21.5237 21.6441 21.6061 21.6441 21.6921C21.6441 21.7781 21.6782 21.8605 21.739 21.9213C21.7998 21.9821 21.8822 22.0162 21.9682 22.0162H22.2923C22.3782 22.0162 22.4607 21.9821 22.5215 21.9213C22.5822 21.8605 22.6164 21.7781 22.6164 21.6921C22.6164 21.6061 22.5822 21.5237 22.5215 21.4629C22.4607 21.4022 22.3782 21.368 22.2923 21.368ZM24.3049 21.368H23.9808C23.8949 21.368 23.8124 21.4022 23.7517 21.4629C23.6909 21.5237 23.6567 21.6061 23.6567 21.6921C23.6567 21.7781 23.6909 21.8605 23.7517 21.9213C23.8124 21.9821 23.8949 22.0162 23.9808 22.0162H24.3049C24.3909 22.0162 24.4733 21.9821 24.5341 21.9213C24.5949 21.8605 24.629 21.7781 24.629 21.6921C24.629 21.6061 24.5949 21.5237 24.5341 21.4629C24.4733 21.4022 24.3909 21.368 24.3049 21.368ZM8.2978 30.7085C8.21184 30.7085 8.12941 30.7426 8.06863 30.8034C8.00785 30.8642 7.9737 30.9466 7.9737 31.0326V31.3567C7.9737 31.4426 8.00785 31.5251 8.06863 31.5858C8.12941 31.6466 8.21184 31.6808 8.2978 31.6808C8.38375 31.6808 8.46619 31.6466 8.52697 31.5858C8.58775 31.5251 8.62189 31.4426 8.62189 31.3567V31.0326C8.62189 30.9466 8.58775 30.8642 8.52697 30.8034C8.46619 30.7426 8.38375 30.7085 8.2978 30.7085ZM8.2978 28.6958C8.21184 28.6958 8.12941 28.73 8.06863 28.7908C8.00785 28.8515 7.9737 28.934 7.9737 29.0199V29.344C7.9737 29.43 8.00785 29.5124 8.06863 29.5732C8.12941 29.634 8.21184 29.6681 8.2978 29.6681C8.38375 29.6681 8.46619 29.634 8.52697 29.5732C8.58775 29.5124 8.62189 29.43 8.62189 29.344V29.0199C8.62189 28.934 8.58775 28.8515 8.52697 28.7908C8.46619 28.73 8.38375 28.6958 8.2978 28.6958ZM7.4519 29.8658H7.12781C7.04185 29.8658 6.95942 29.9 6.89864 29.9607C6.83786 30.0215 6.80371 30.104 6.80371 30.1899C6.80371 30.2759 6.83786 30.3583 6.89864 30.4191C6.95942 30.4799 7.04185 30.514 7.12781 30.514H7.4519C7.53786 30.514 7.62029 30.4799 7.68107 30.4191C7.74185 30.3583 7.776 30.2759 7.776 30.1899C7.776 30.104 7.74185 30.0215 7.68107 29.9607C7.62029 29.9 7.53786 29.8658 7.4519 29.8658ZM9.46778 29.8658H9.14369C9.05773 29.8658 8.9753 29.9 8.91452 29.9607C8.85374 30.0215 8.81959 30.104 8.81959 30.1899C8.81959 30.2759 8.85374 30.3583 8.91452 30.4191C8.9753 30.4799 9.05773 30.514 9.14369 30.514H9.46778C9.55374 30.514 9.63618 30.4799 9.69696 30.4191C9.75774 30.3583 9.79188 30.2759 9.79188 30.1899C9.79188 30.104 9.75774 30.0215 9.69696 29.9607C9.63618 29.9 9.55374 29.8658 9.46778 29.8658ZM15.7164 30.7085C15.6304 30.7085 15.548 30.7426 15.4872 30.8034C15.4264 30.8642 15.3923 30.9466 15.3923 31.0326V31.3567C15.3923 31.4426 15.4264 31.5251 15.4872 31.5858C15.548 31.6466 15.6304 31.6808 15.7164 31.6808C15.8023 31.6808 15.8848 31.6466 15.9455 31.5858C16.0063 31.5251 16.0405 31.4426 16.0405 31.3567V31.0326C16.0405 30.9466 16.0063 30.8642 15.9455 30.8034C15.8848 30.7426 15.8023 30.7085 15.7164 30.7085ZM15.7164 28.6958C15.6304 28.6958 15.548 28.73 15.4872 28.7908C15.4264 28.8515 15.3923 28.934 15.3923 29.0199V29.344C15.3923 29.43 15.4264 29.5124 15.4872 29.5732C15.548 29.634 15.6304 29.6681 15.7164 29.6681C15.8023 29.6681 15.8848 29.634 15.9455 29.5732C16.0063 29.5124 16.0405 29.43 16.0405 29.344V29.0199C16.0405 28.934 16.0063 28.8515 15.9455 28.7908C15.8848 28.73 15.8023 28.6958 15.7164 28.6958ZM14.8737 29.8658H14.5496C14.4637 29.8658 14.3812 29.9 14.3204 29.9607C14.2597 30.0215 14.2255 30.104 14.2255 30.1899C14.2255 30.2759 14.2597 30.3583 14.3204 30.4191C14.3812 30.4799 14.4637 30.514 14.5496 30.514H14.8737C14.9597 30.514 15.0421 30.4799 15.1029 30.4191C15.1637 30.3583 15.1978 30.2759 15.1978 30.1899C15.1978 30.104 15.1637 30.0215 15.1029 29.9607C15.0421 29.9 14.9597 29.8658 14.8737 29.8658ZM16.8831 29.8658H16.559C16.4731 29.8658 16.3906 29.9 16.3298 29.9607C16.2691 30.0215 16.2349 30.104 16.2349 30.1899C16.2349 30.2759 16.2691 30.3583 16.3298 30.4191C16.3906 30.4799 16.4731 30.514 16.559 30.514H16.8831C16.9691 30.514 17.0515 30.4799 17.1123 30.4191C17.1731 30.3583 17.2072 30.2759 17.2072 30.1899C17.2072 30.104 17.1731 30.0215 17.1123 29.9607C17.0515 29.9 16.9691 29.8658 16.8831 29.8658ZM23.1349 30.7085C23.049 30.7085 22.9665 30.7426 22.9058 30.8034C22.845 30.8642 22.8108 30.9466 22.8108 31.0326V31.3567C22.8108 31.4426 22.845 31.5251 22.9058 31.5858C22.9665 31.6466 23.049 31.6808 23.1349 31.6808C23.2209 31.6808 23.3033 31.6466 23.3641 31.5858C23.4249 31.5251 23.459 31.4426 23.459 31.3567V31.0326C23.459 30.9466 23.4249 30.8642 23.3641 30.8034C23.3033 30.7426 23.2209 30.7085 23.1349 30.7085ZM23.1349 28.6958C23.049 28.6958 22.9665 28.73 22.9058 28.7908C22.845 28.8515 22.8108 28.934 22.8108 29.0199V29.344C22.8108 29.43 22.845 29.5124 22.9058 29.5732C22.9665 29.634 23.049 29.6681 23.1349 29.6681C23.2209 29.6681 23.3033 29.634 23.3641 29.5732C23.4249 29.5124 23.459 29.43 23.459 29.344V29.0199C23.459 28.934 23.4249 28.8515 23.3641 28.7908C23.3033 28.73 23.2209 28.6958 23.1349 28.6958ZM22.2923 29.8658H21.9682C21.8822 29.8658 21.7998 29.9 21.739 29.9607C21.6782 30.0215 21.6441 30.104 21.6441 30.1899C21.6441 30.2759 21.6782 30.3583 21.739 30.4191C21.7998 30.4799 21.8822 30.514 21.9682 30.514H22.2923C22.3782 30.514 22.4607 30.4799 22.5215 30.4191C22.5822 30.3583 22.6164 30.2759 22.6164 30.1899C22.6164 30.104 22.5822 30.0215 22.5215 29.9607C22.4607 29.9 22.3782 29.8658 22.2923 29.8658ZM24.3049 29.8658H23.9808C23.8949 29.8658 23.8124 29.9 23.7517 29.9607C23.6909 30.0215 23.6567 30.104 23.6567 30.1899C23.6567 30.2759 23.6909 30.3583 23.7517 30.4191C23.8124 30.4799 23.8949 30.514 23.9808 30.514H24.3049C24.3909 30.514 24.4733 30.4799 24.5341 30.4191C24.5949 30.3583 24.629 30.2759 24.629 30.1899C24.629 30.104 24.5949 30.0215 24.5341 29.9607C24.4733 29.9 24.3909 29.8658 24.3049 29.8658ZM30.5567 30.7085C30.4708 30.7085 30.3884 30.7426 30.3276 30.8034C30.2668 30.8642 30.2326 30.9466 30.2326 31.0326V31.3567C30.2326 31.4426 30.2668 31.5251 30.3276 31.5858C30.3884 31.6466 30.4708 31.6808 30.5567 31.6808C30.6427 31.6808 30.7251 31.6466 30.7859 31.5858C30.8467 31.5251 30.8808 31.4426 30.8808 31.3567V31.0326C30.8808 30.9466 30.8467 30.8642 30.7859 30.8034C30.7251 30.7426 30.6427 30.7085 30.5567 30.7085ZM29.7109 29.8658H29.3868C29.3008 29.8658 29.2184 29.9 29.1576 29.9607C29.0968 30.0215 29.0627 30.104 29.0627 30.1899C29.0627 30.2759 29.0968 30.3583 29.1576 30.4191C29.2184 30.4799 29.3008 30.514 29.3868 30.514H29.7109C29.7968 30.514 29.8792 30.4799 29.94 30.4191C30.0008 30.3583 30.035 30.2759 30.035 30.1899C30.035 30.104 30.0008 30.0215 29.94 29.9607C29.8792 29.9 29.7968 29.8658 29.7109 29.8658ZM31.7235 29.8658H31.3994C31.3134 29.8658 31.231 29.9 31.1702 29.9607C31.1094 30.0215 31.0753 30.104 31.0753 30.1899C31.0753 30.2759 31.1094 30.3583 31.1702 30.4191C31.231 30.4799 31.3134 30.514 31.3994 30.514H31.7235C31.8095 30.514 31.8919 30.4799 31.9527 30.4191C32.0134 30.3583 32.0476 30.2759 32.0476 30.1899C32.0476 30.104 32.0134 30.0215 31.9527 29.9607C31.8919 29.9 31.8095 29.8658 31.7235 29.8658ZM13.2403 26.5373L13.0102 26.3072C12.9482 26.2541 12.8684 26.2264 12.7868 26.2295C12.7053 26.2327 12.6279 26.2665 12.5702 26.3242C12.5125 26.382 12.4786 26.4593 12.4755 26.5409C12.4723 26.6225 12.5001 26.7022 12.5532 26.7642L12.7833 26.9976C12.8135 27.0276 12.8493 27.0513 12.8887 27.0675C12.9281 27.0836 12.9703 27.0919 13.0129 27.0917C13.0555 27.0916 13.0976 27.083 13.1369 27.0666C13.1762 27.0502 13.2119 27.0262 13.2419 26.9959C13.2719 26.9657 13.2957 26.9299 13.3118 26.8905C13.328 26.8511 13.3362 26.8089 13.3361 26.7663C13.3359 26.7237 13.3274 26.6816 13.3109 26.6423C13.2945 26.603 13.2705 26.5674 13.2403 26.5373ZM11.8304 25.1146L11.6003 24.8845C11.5704 24.8542 11.5347 24.8302 11.4955 24.8138C11.4562 24.7973 11.4141 24.7888 11.3715 24.7886C11.329 24.7884 11.2868 24.7966 11.2474 24.8128C11.208 24.8289 11.1722 24.8526 11.142 24.8826L11.1401 24.8845C11.0798 24.9452 11.0459 25.0273 11.0459 25.1129C11.0459 25.1986 11.0798 25.2807 11.1401 25.3414L11.3735 25.5715C11.4333 25.6326 11.5149 25.6676 11.6003 25.6688C11.6647 25.6691 11.7277 25.6503 11.7814 25.6148C11.835 25.5792 11.8769 25.5284 11.9015 25.469C11.9262 25.4095 11.9327 25.344 11.92 25.2809C11.9073 25.2178 11.8762 25.1599 11.8304 25.1146ZM11.7951 26.3072C11.7364 26.257 11.6616 26.2293 11.5843 26.2293C11.507 26.2293 11.4323 26.257 11.3736 26.3072L11.1402 26.5373C11.11 26.5673 11.086 26.603 11.0695 26.6422C11.0531 26.6815 11.0445 26.7236 11.0443 26.7661C11.0442 26.8087 11.0524 26.8509 11.0685 26.8903C11.0846 26.9297 11.1084 26.9655 11.1383 26.9957L11.1402 26.9976C11.1702 27.0278 11.2058 27.0518 11.2451 27.0683C11.2843 27.0847 11.3264 27.0933 11.369 27.0934C11.4116 27.0936 11.4537 27.0854 11.4931 27.0693C11.5325 27.0531 11.5683 27.0294 11.5986 26.9994L11.6004 26.9976L11.8305 26.7642C11.8582 26.7319 11.8793 26.6944 11.8925 26.654C11.9057 26.6135 11.9108 26.5708 11.9075 26.5284C11.9042 26.486 11.8926 26.4446 11.8733 26.4066C11.854 26.3687 11.8275 26.3349 11.7951 26.3072ZM13.2049 24.8845C13.1462 24.8342 13.0714 24.8065 12.9941 24.8065C12.9168 24.8065 12.842 24.8342 12.7833 24.8845L12.5532 25.1146C12.4928 25.1753 12.4589 25.2574 12.4589 25.3431C12.4589 25.4287 12.4928 25.5108 12.5532 25.5715C12.613 25.6326 12.6946 25.6676 12.7801 25.6688C12.8229 25.6686 12.8654 25.6599 12.9049 25.6432C12.9443 25.6265 12.9801 25.6022 13.0102 25.5715L13.2403 25.3414C13.2962 25.2761 13.3239 25.1913 13.3172 25.1056C13.3106 25.0199 13.2702 24.9404 13.2049 24.8845ZM20.607 26.5373L20.3769 26.3072C20.3469 26.277 20.3113 26.253 20.272 26.2366C20.2328 26.2201 20.1906 26.2115 20.1481 26.2114C20.1055 26.2112 20.0633 26.2194 20.024 26.2355C19.9846 26.2517 19.9487 26.2754 19.9185 26.3054L19.9167 26.3072C19.8563 26.368 19.8224 26.4501 19.8224 26.5357C19.8224 26.6213 19.8563 26.7035 19.9167 26.7642L20.15 26.9976C20.1802 27.0276 20.2161 27.0513 20.2555 27.0675C20.2949 27.0836 20.3371 27.0919 20.3796 27.0917C20.4222 27.0916 20.4644 27.083 20.5036 27.0666C20.5429 27.0502 20.5786 27.0262 20.6086 26.9959C20.6386 26.9657 20.6624 26.9299 20.6785 26.8905C20.6947 26.8511 20.7029 26.8089 20.7028 26.7663C20.7026 26.7237 20.6941 26.6816 20.6776 26.6423C20.6612 26.603 20.6372 26.5674 20.607 26.5373ZM19.1842 25.1146L18.9508 24.8845C18.9231 24.8465 18.8874 24.815 18.8462 24.7922C18.805 24.7694 18.7594 24.7559 18.7124 24.7525C18.6655 24.7491 18.6184 24.756 18.5744 24.7727C18.5304 24.7894 18.4905 24.8155 18.4576 24.8491C18.4247 24.8827 18.3995 24.9231 18.3838 24.9675C18.3681 25.0118 18.3622 25.0591 18.3666 25.1059C18.3709 25.1528 18.3855 25.1981 18.4091 25.2388C18.4328 25.2794 18.465 25.3145 18.5036 25.3414L18.724 25.5715C18.785 25.6306 18.8667 25.6635 18.9517 25.6629C19.0366 25.6624 19.1179 25.6286 19.1782 25.5687C19.2385 25.5089 19.2729 25.4278 19.274 25.3429C19.2751 25.258 19.2429 25.176 19.1842 25.1146ZM19.1842 26.2975C19.1224 26.2378 19.0394 26.205 18.9535 26.2065C18.8675 26.2079 18.7857 26.2434 18.7259 26.3052L18.724 26.3072L18.4939 26.5373C18.4475 26.6001 18.4253 26.6775 18.4314 26.7553C18.4375 26.833 18.4714 26.906 18.527 26.9608C18.5825 27.0156 18.656 27.0485 18.7339 27.0534C18.8117 27.0584 18.8888 27.0351 18.9508 26.9878L19.1842 26.7545C19.2446 26.6938 19.2784 26.6116 19.2784 26.526C19.2784 26.4404 19.2446 26.3582 19.1842 26.2975ZM20.5717 24.8845C20.5129 24.8342 20.4382 24.8065 20.3608 24.8065C20.2835 24.8065 20.2087 24.8342 20.15 24.8845L19.9167 25.1146C19.871 25.1599 19.8398 25.2178 19.8271 25.2809C19.8145 25.344 19.8209 25.4095 19.8456 25.469C19.8702 25.5284 19.9121 25.5792 19.9657 25.6148C20.0194 25.6503 20.0824 25.6691 20.1468 25.6688C20.1896 25.6686 20.2321 25.6599 20.2716 25.6432C20.3111 25.6265 20.3469 25.6022 20.3769 25.5715L20.607 25.3414C20.6629 25.2761 20.6906 25.1913 20.684 25.1056C20.6773 25.0199 20.6369 24.9404 20.5717 24.8845ZM27.9756 26.5392L27.9737 26.5373L27.7404 26.3072C27.6784 26.2541 27.5986 26.2264 27.517 26.2295C27.4355 26.2327 27.3581 26.2665 27.3004 26.3242C27.2426 26.382 27.2088 26.4593 27.2057 26.5409C27.2025 26.6225 27.2303 26.7022 27.2834 26.7642L27.5135 26.9976C27.5435 27.0278 27.5791 27.0518 27.6183 27.0683C27.6576 27.0847 27.6997 27.0933 27.7423 27.0934C27.7848 27.0936 27.827 27.0854 27.8664 27.0693C27.9058 27.0531 27.9416 27.0294 27.9718 26.9994L27.9737 26.9976C28.0039 26.9676 28.0279 26.932 28.0444 26.8927C28.0608 26.8534 28.0694 26.8113 28.0696 26.7688C28.0697 26.7262 28.0615 26.684 28.0454 26.6446C28.0293 26.6053 28.0055 26.5694 27.9756 26.5392ZM26.5477 25.1146L26.3176 24.8845C26.2556 24.8314 26.1758 24.8036 26.0942 24.8068C26.0127 24.8099 25.9353 24.8437 25.8776 24.9014C25.8199 24.9592 25.7861 25.0365 25.7829 25.1181C25.7797 25.1997 25.8075 25.2794 25.8606 25.3414L26.0907 25.5715C26.1207 25.6022 26.1565 25.6265 26.196 25.6432C26.2355 25.6599 26.2779 25.6686 26.3208 25.6688C26.4063 25.6676 26.4878 25.6326 26.5477 25.5715C26.608 25.5108 26.6419 25.4287 26.6419 25.3431C26.6419 25.2574 26.608 25.1753 26.5477 25.1146ZM26.5123 26.2975C26.4536 26.2472 26.3788 26.2196 26.3015 26.2196C26.2242 26.2196 26.1494 26.2472 26.0907 26.2975V26.3072L25.8606 26.5373C25.8142 26.6001 25.792 26.6775 25.7981 26.7553C25.8042 26.833 25.8381 26.906 25.8937 26.9608C25.9492 27.0156 26.0227 27.0485 26.1006 27.0534C26.1784 27.0584 26.2555 27.0351 26.3176 26.9878L26.5477 26.7545C26.6036 26.6892 26.6313 26.6044 26.6247 26.5187C26.618 26.433 26.5776 26.3534 26.5123 26.2975ZM27.9737 24.8845C27.9437 24.8542 27.9081 24.8302 27.8688 24.8138C27.8296 24.7973 27.7875 24.7888 27.7449 24.7886C27.7023 24.7884 27.6602 24.7966 27.6208 24.8128C27.5814 24.8289 27.5456 24.8526 27.5153 24.8826L27.5135 24.8845L27.2834 25.1146C27.2377 25.1599 27.2065 25.2178 27.1938 25.2809C27.1812 25.344 27.1876 25.4095 27.2123 25.469C27.237 25.5284 27.2788 25.5792 27.3324 25.6148C27.3861 25.6503 27.4491 25.6691 27.5135 25.6688C27.599 25.6676 27.6805 25.6326 27.7404 25.5715L27.9737 25.3414C28.0341 25.2807 28.0679 25.1986 28.0679 25.1129C28.0679 25.0273 28.0341 24.9452 27.9737 24.8845ZM36.3289 8.60832H33.1495C33.0658 8.61167 32.9867 8.64729 32.9287 8.70771C32.8707 8.76813 32.8383 8.84866 32.8384 8.93242C32.8384 9.01838 32.8725 9.10081 32.9333 9.16159C32.9941 9.22237 33.0765 9.25652 33.1625 9.25652H36.3289C36.4149 9.25652 36.4973 9.22237 36.5581 9.16159C36.6189 9.10081 36.653 9.01838 36.653 8.93242C36.653 8.84646 36.6189 8.76403 36.5581 8.70325C36.4973 8.64247 36.4149 8.60832 36.3289 8.60832ZM31.2795 8.60832H30.573C30.487 8.60832 30.4046 8.64247 30.3438 8.70325C30.283 8.76403 30.2489 8.84646 30.2489 8.93242C30.2489 9.01838 30.283 9.10081 30.3438 9.16159C30.4046 9.22237 30.487 9.25652 30.573 9.25652H31.2795C31.3654 9.25652 31.4479 9.22237 31.5087 9.16159C31.5694 9.10081 31.6036 9.01838 31.6036 8.93242C31.6036 8.84646 31.5694 8.76403 31.5087 8.70325C31.4479 8.64247 31.3654 8.60832 31.2795 8.60832Z" fill="black"/>
</g>
<defs>
<clipPath id="clip0_1_2876">
<rect width="40" height="40" fill="white" transform="translate(0.5 0.5)"/>
</clipPath>
</defs>
</svg>
